M48
;DRILL file {KiCad 4.0.1-stable} date Wed 20 Jan 2016 09:39:10 AM EET
;FORMAT={-:-/ absolute / inch / decimal}
FMAT,2
INCH,TZ
T1C0.031
T2C0.039
T3C0.040
%
G90
G05
M72
T1
X6.806Y-4.252
X7.0296Y-4.2485
X7.1Y-4.8
X7.1Y-4.9
X7.1Y-5.
X7.1Y-5.1
X7.4Y-4.8
X7.4Y-4.9
X7.4Y-5.
X7.4Y-5.1
T2
X6.7Y-4.8
X6.7Y-4.9
X6.7Y-5.
X6.7Y-5.1
X7.15Y-4.375
X7.15Y-4.475
X7.25Y-4.375
X7.25Y-4.475
X7.35Y-4.375
X7.35Y-4.475
X7.7405Y-4.4255
X7.7405Y-4.5255
X7.7405Y-4.6255
X7.8Y-4.8
X7.8Y-5.
X7.8Y-5.1
T3
X7.8Y-4.9
T0
M30
