M48
;DRILL file {KiCad 4.0.1-stable} date 26.1.2016 16.01.11
;FORMAT={-:-/ absolute / inch / decimal}
FMAT,2
INCH,TZ
T1C0.013
T2C0.031
T3C0.040
T4C0.043
%
G90
G05
M72
T1
X6.792Y-4.172
X6.864Y-4.193
X6.864Y-4.364
X7.182Y-3.891
T2
X6.8Y-4.3
X6.8Y-4.4
X6.8Y-4.5
X6.8Y-4.6
X7.1Y-4.3
X7.1Y-4.4
X7.1Y-4.5
X7.1Y-4.6
T3
X6.6Y-3.926
X6.6Y-4.026
X6.6Y-4.3
X6.6Y-4.4
X6.6Y-4.5
X6.6Y-4.6
X6.7Y-3.926
X6.7Y-4.026
X6.8Y-3.926
X6.8Y-4.026
X7.3Y-4.3
X7.3Y-4.4
X7.3Y-4.5
X7.3Y-4.6
T4
X7.2676Y-3.9267
X7.2676Y-4.0267
X7.2676Y-4.1267
T0
M30
