M48
;DRILL file {KiCad 4.0.1-stable} date 20.1.2016 23.10.06
;FORMAT={-:-/ absolute / inch / decimal}
FMAT,2
INCH,TZ
T1C0.013
T2C0.031
T3C0.040
T4C0.043
%
G90
G05
M72
T1
X6.85Y-3.905
X7.025Y-4.375
X7.035Y-4.058
T2
X6.8Y-4.3
X6.8Y-4.4
X6.8Y-4.5
X6.8Y-4.6
X7.1Y-4.3
X7.1Y-4.4
X7.1Y-4.5
X7.1Y-4.6
T3
X6.5Y-3.9
X6.5Y-4.
X6.5Y-4.3
X6.5Y-4.4
X6.5Y-4.5
X6.5Y-4.6
X6.6Y-3.9
X6.6Y-4.
X6.7Y-3.9
X6.7Y-4.
X7.4Y-4.3
X7.4Y-4.4
X7.4Y-4.5
X7.4Y-4.6
T4
X7.3368Y-3.9
X7.3368Y-4.
X7.3368Y-4.1
T0
M30
