G04 #@! TF.FileFunction,Legend,Top*
%FSLAX46Y46*%
G04 Gerber Fmt 4.6, Leading zero omitted, Abs format (unit mm)*
G04 Created by KiCad (PCBNEW 4.0.1-stable) date 20.1.2016 23.10.08*
%MOMM*%
G01*
G04 APERTURE LIST*
%ADD10C,0.100000*%
%ADD11C,0.200000*%
%ADD12C,0.300000*%
%ADD13C,0.150000*%
%ADD14O,1.854000X1.854000*%
%ADD15O,2.286000X1.981200*%
%ADD16O,2.252980X2.252980*%
%ADD17R,2.252980X2.252980*%
%ADD18R,1.981200X1.981200*%
%ADD19O,1.981200X1.981200*%
%ADD20R,2.054860X1.851660*%
G04 APERTURE END LIST*
D10*
D11*
X165705115Y-105136071D02*
X165705115Y-103636071D01*
X167276544Y-104993214D02*
X167205115Y-105064643D01*
X166990829Y-105136071D01*
X166847972Y-105136071D01*
X166633687Y-105064643D01*
X166490829Y-104921786D01*
X166419401Y-104778929D01*
X166347972Y-104493214D01*
X166347972Y-104278929D01*
X166419401Y-103993214D01*
X166490829Y-103850357D01*
X166633687Y-103707500D01*
X166847972Y-103636071D01*
X166990829Y-103636071D01*
X167205115Y-103707500D01*
X167276544Y-103778929D01*
X167847972Y-105064643D02*
X168062258Y-105136071D01*
X168419401Y-105136071D01*
X168562258Y-105064643D01*
X168633687Y-104993214D01*
X168705115Y-104850357D01*
X168705115Y-104707500D01*
X168633687Y-104564643D01*
X168562258Y-104493214D01*
X168419401Y-104421786D01*
X168133687Y-104350357D01*
X167990829Y-104278929D01*
X167919401Y-104207500D01*
X167847972Y-104064643D01*
X167847972Y-103921786D01*
X167919401Y-103778929D01*
X167990829Y-103707500D01*
X168133687Y-103636071D01*
X168490829Y-103636071D01*
X168705115Y-103707500D01*
X169347972Y-105136071D02*
X169347972Y-103636071D01*
X169919400Y-103636071D01*
X170062258Y-103707500D01*
X170133686Y-103778929D01*
X170205115Y-103921786D01*
X170205115Y-104136071D01*
X170133686Y-104278929D01*
X170062258Y-104350357D01*
X169919400Y-104421786D01*
X169347972Y-104421786D01*
X178963843Y-98238571D02*
X179463843Y-99738571D01*
X179963843Y-98238571D01*
X180463843Y-99738571D02*
X180463843Y-98238571D01*
X181178129Y-99738571D02*
X181178129Y-98238571D01*
X182035272Y-99738571D01*
X182035272Y-98238571D01*
X178606700Y-100778571D02*
X179106700Y-102278571D01*
X179606700Y-100778571D01*
X180963843Y-102135714D02*
X180892414Y-102207143D01*
X180678128Y-102278571D01*
X180535271Y-102278571D01*
X180320986Y-102207143D01*
X180178128Y-102064286D01*
X180106700Y-101921429D01*
X180035271Y-101635714D01*
X180035271Y-101421429D01*
X180106700Y-101135714D01*
X180178128Y-100992857D01*
X180320986Y-100850000D01*
X180535271Y-100778571D01*
X180678128Y-100778571D01*
X180892414Y-100850000D01*
X180963843Y-100921429D01*
X182463843Y-102135714D02*
X182392414Y-102207143D01*
X182178128Y-102278571D01*
X182035271Y-102278571D01*
X181820986Y-102207143D01*
X181678128Y-102064286D01*
X181606700Y-101921429D01*
X181535271Y-101635714D01*
X181535271Y-101421429D01*
X181606700Y-101135714D01*
X181678128Y-100992857D01*
X181820986Y-100850000D01*
X182035271Y-100778571D01*
X182178128Y-100778571D01*
X182392414Y-100850000D01*
X182463843Y-100921429D01*
X181946800Y-108398571D02*
X182446800Y-109898571D01*
X182946800Y-108398571D01*
X184303943Y-109755714D02*
X184232514Y-109827143D01*
X184018228Y-109898571D01*
X183875371Y-109898571D01*
X183661086Y-109827143D01*
X183518228Y-109684286D01*
X183446800Y-109541429D01*
X183375371Y-109255714D01*
X183375371Y-109041429D01*
X183446800Y-108755714D01*
X183518228Y-108612857D01*
X183661086Y-108470000D01*
X183875371Y-108398571D01*
X184018228Y-108398571D01*
X184232514Y-108470000D01*
X184303943Y-108541429D01*
X185803943Y-109755714D02*
X185732514Y-109827143D01*
X185518228Y-109898571D01*
X185375371Y-109898571D01*
X185161086Y-109827143D01*
X185018228Y-109684286D01*
X184946800Y-109541429D01*
X184875371Y-109255714D01*
X184875371Y-109041429D01*
X184946800Y-108755714D01*
X185018228Y-108612857D01*
X185161086Y-108470000D01*
X185375371Y-108398571D01*
X185518228Y-108398571D01*
X185732514Y-108470000D01*
X185803943Y-108541429D01*
X179463843Y-103390000D02*
X179320986Y-103318571D01*
X179106700Y-103318571D01*
X178892415Y-103390000D01*
X178749557Y-103532857D01*
X178678129Y-103675714D01*
X178606700Y-103961429D01*
X178606700Y-104175714D01*
X178678129Y-104461429D01*
X178749557Y-104604286D01*
X178892415Y-104747143D01*
X179106700Y-104818571D01*
X179249557Y-104818571D01*
X179463843Y-104747143D01*
X179535272Y-104675714D01*
X179535272Y-104175714D01*
X179249557Y-104175714D01*
X180178129Y-104818571D02*
X180178129Y-103318571D01*
X181035272Y-104818571D01*
X181035272Y-103318571D01*
X181749558Y-104818571D02*
X181749558Y-103318571D01*
X182106701Y-103318571D01*
X182320986Y-103390000D01*
X182463844Y-103532857D01*
X182535272Y-103675714D01*
X182606701Y-103961429D01*
X182606701Y-104175714D01*
X182535272Y-104461429D01*
X182463844Y-104604286D01*
X182320986Y-104747143D01*
X182106701Y-104818571D01*
X181749558Y-104818571D01*
X168122743Y-116090000D02*
X167979886Y-116018571D01*
X167765600Y-116018571D01*
X167551315Y-116090000D01*
X167408457Y-116232857D01*
X167337029Y-116375714D01*
X167265600Y-116661429D01*
X167265600Y-116875714D01*
X167337029Y-117161429D01*
X167408457Y-117304286D01*
X167551315Y-117447143D01*
X167765600Y-117518571D01*
X167908457Y-117518571D01*
X168122743Y-117447143D01*
X168194172Y-117375714D01*
X168194172Y-116875714D01*
X167908457Y-116875714D01*
X168837029Y-117518571D02*
X168837029Y-116018571D01*
X169694172Y-117518571D01*
X169694172Y-116018571D01*
X170408458Y-117518571D02*
X170408458Y-116018571D01*
X170765601Y-116018571D01*
X170979886Y-116090000D01*
X171122744Y-116232857D01*
X171194172Y-116375714D01*
X171265601Y-116661429D01*
X171265601Y-116875714D01*
X171194172Y-117161429D01*
X171122744Y-117304286D01*
X170979886Y-117447143D01*
X170765601Y-117518571D01*
X170408458Y-117518571D01*
X167408458Y-114978571D02*
X167408458Y-113478571D01*
X167979886Y-113478571D01*
X168122744Y-113550000D01*
X168194172Y-113621429D01*
X168265601Y-113764286D01*
X168265601Y-113978571D01*
X168194172Y-114121429D01*
X168122744Y-114192857D01*
X167979886Y-114264286D01*
X167408458Y-114264286D01*
X169408458Y-114192857D02*
X169622744Y-114264286D01*
X169694172Y-114335714D01*
X169765601Y-114478571D01*
X169765601Y-114692857D01*
X169694172Y-114835714D01*
X169622744Y-114907143D01*
X169479886Y-114978571D01*
X168908458Y-114978571D01*
X168908458Y-113478571D01*
X169408458Y-113478571D01*
X169551315Y-113550000D01*
X169622744Y-113621429D01*
X169694172Y-113764286D01*
X169694172Y-113907143D01*
X169622744Y-114050000D01*
X169551315Y-114121429D01*
X169408458Y-114192857D01*
X168908458Y-114192857D01*
X171051315Y-113978571D02*
X171051315Y-114978571D01*
X170694172Y-113407143D02*
X170337029Y-114478571D01*
X171265601Y-114478571D01*
X167408458Y-112438571D02*
X167408458Y-110938571D01*
X167979886Y-110938571D01*
X168122744Y-111010000D01*
X168194172Y-111081429D01*
X168265601Y-111224286D01*
X168265601Y-111438571D01*
X168194172Y-111581429D01*
X168122744Y-111652857D01*
X167979886Y-111724286D01*
X167408458Y-111724286D01*
X169408458Y-111652857D02*
X169622744Y-111724286D01*
X169694172Y-111795714D01*
X169765601Y-111938571D01*
X169765601Y-112152857D01*
X169694172Y-112295714D01*
X169622744Y-112367143D01*
X169479886Y-112438571D01*
X168908458Y-112438571D01*
X168908458Y-110938571D01*
X169408458Y-110938571D01*
X169551315Y-111010000D01*
X169622744Y-111081429D01*
X169694172Y-111224286D01*
X169694172Y-111367143D01*
X169622744Y-111510000D01*
X169551315Y-111581429D01*
X169408458Y-111652857D01*
X168908458Y-111652857D01*
X170265601Y-110938571D02*
X171194172Y-110938571D01*
X170694172Y-111510000D01*
X170908458Y-111510000D01*
X171051315Y-111581429D01*
X171122744Y-111652857D01*
X171194172Y-111795714D01*
X171194172Y-112152857D01*
X171122744Y-112295714D01*
X171051315Y-112367143D01*
X170908458Y-112438571D01*
X170479886Y-112438571D01*
X170337029Y-112367143D01*
X170265601Y-112295714D01*
X182089658Y-117518571D02*
X182089658Y-116018571D01*
X182661086Y-116018571D01*
X182803944Y-116090000D01*
X182875372Y-116161429D01*
X182946801Y-116304286D01*
X182946801Y-116518571D01*
X182875372Y-116661429D01*
X182803944Y-116732857D01*
X182661086Y-116804286D01*
X182089658Y-116804286D01*
X184089658Y-116732857D02*
X184303944Y-116804286D01*
X184375372Y-116875714D01*
X184446801Y-117018571D01*
X184446801Y-117232857D01*
X184375372Y-117375714D01*
X184303944Y-117447143D01*
X184161086Y-117518571D01*
X183589658Y-117518571D01*
X183589658Y-116018571D01*
X184089658Y-116018571D01*
X184232515Y-116090000D01*
X184303944Y-116161429D01*
X184375372Y-116304286D01*
X184375372Y-116447143D01*
X184303944Y-116590000D01*
X184232515Y-116661429D01*
X184089658Y-116732857D01*
X183589658Y-116732857D01*
X185375372Y-116018571D02*
X185518229Y-116018571D01*
X185661086Y-116090000D01*
X185732515Y-116161429D01*
X185803944Y-116304286D01*
X185875372Y-116590000D01*
X185875372Y-116947143D01*
X185803944Y-117232857D01*
X185732515Y-117375714D01*
X185661086Y-117447143D01*
X185518229Y-117518571D01*
X185375372Y-117518571D01*
X185232515Y-117447143D01*
X185161086Y-117375714D01*
X185089658Y-117232857D01*
X185018229Y-116947143D01*
X185018229Y-116590000D01*
X185089658Y-116304286D01*
X185161086Y-116161429D01*
X185232515Y-116090000D01*
X185375372Y-116018571D01*
X182089658Y-114978571D02*
X182089658Y-113478571D01*
X182661086Y-113478571D01*
X182803944Y-113550000D01*
X182875372Y-113621429D01*
X182946801Y-113764286D01*
X182946801Y-113978571D01*
X182875372Y-114121429D01*
X182803944Y-114192857D01*
X182661086Y-114264286D01*
X182089658Y-114264286D01*
X184089658Y-114192857D02*
X184303944Y-114264286D01*
X184375372Y-114335714D01*
X184446801Y-114478571D01*
X184446801Y-114692857D01*
X184375372Y-114835714D01*
X184303944Y-114907143D01*
X184161086Y-114978571D01*
X183589658Y-114978571D01*
X183589658Y-113478571D01*
X184089658Y-113478571D01*
X184232515Y-113550000D01*
X184303944Y-113621429D01*
X184375372Y-113764286D01*
X184375372Y-113907143D01*
X184303944Y-114050000D01*
X184232515Y-114121429D01*
X184089658Y-114192857D01*
X183589658Y-114192857D01*
X185875372Y-114978571D02*
X185018229Y-114978571D01*
X185446801Y-114978571D02*
X185446801Y-113478571D01*
X185303944Y-113692857D01*
X185161086Y-113835714D01*
X185018229Y-113907143D01*
X182089658Y-112438571D02*
X182089658Y-110938571D01*
X182661086Y-110938571D01*
X182803944Y-111010000D01*
X182875372Y-111081429D01*
X182946801Y-111224286D01*
X182946801Y-111438571D01*
X182875372Y-111581429D01*
X182803944Y-111652857D01*
X182661086Y-111724286D01*
X182089658Y-111724286D01*
X184089658Y-111652857D02*
X184303944Y-111724286D01*
X184375372Y-111795714D01*
X184446801Y-111938571D01*
X184446801Y-112152857D01*
X184375372Y-112295714D01*
X184303944Y-112367143D01*
X184161086Y-112438571D01*
X183589658Y-112438571D01*
X183589658Y-110938571D01*
X184089658Y-110938571D01*
X184232515Y-111010000D01*
X184303944Y-111081429D01*
X184375372Y-111224286D01*
X184375372Y-111367143D01*
X184303944Y-111510000D01*
X184232515Y-111581429D01*
X184089658Y-111652857D01*
X183589658Y-111652857D01*
X185018229Y-111081429D02*
X185089658Y-111010000D01*
X185232515Y-110938571D01*
X185589658Y-110938571D01*
X185732515Y-111010000D01*
X185803944Y-111081429D01*
X185875372Y-111224286D01*
X185875372Y-111367143D01*
X185803944Y-111581429D01*
X184946801Y-112438571D01*
X185875372Y-112438571D01*
X167408458Y-109898571D02*
X167408458Y-108398571D01*
X167979886Y-108398571D01*
X168122744Y-108470000D01*
X168194172Y-108541429D01*
X168265601Y-108684286D01*
X168265601Y-108898571D01*
X168194172Y-109041429D01*
X168122744Y-109112857D01*
X167979886Y-109184286D01*
X167408458Y-109184286D01*
X169408458Y-109112857D02*
X169622744Y-109184286D01*
X169694172Y-109255714D01*
X169765601Y-109398571D01*
X169765601Y-109612857D01*
X169694172Y-109755714D01*
X169622744Y-109827143D01*
X169479886Y-109898571D01*
X168908458Y-109898571D01*
X168908458Y-108398571D01*
X169408458Y-108398571D01*
X169551315Y-108470000D01*
X169622744Y-108541429D01*
X169694172Y-108684286D01*
X169694172Y-108827143D01*
X169622744Y-108970000D01*
X169551315Y-109041429D01*
X169408458Y-109112857D01*
X168908458Y-109112857D01*
X171122744Y-108398571D02*
X170408458Y-108398571D01*
X170337029Y-109112857D01*
X170408458Y-109041429D01*
X170551315Y-108970000D01*
X170908458Y-108970000D01*
X171051315Y-109041429D01*
X171122744Y-109112857D01*
X171194172Y-109255714D01*
X171194172Y-109612857D01*
X171122744Y-109755714D01*
X171051315Y-109827143D01*
X170908458Y-109898571D01*
X170551315Y-109898571D01*
X170408458Y-109827143D01*
X170337029Y-109755714D01*
D12*
X176780000Y-117565714D02*
X176780000Y-116851428D01*
X177208571Y-117708571D02*
X175708571Y-117208571D01*
X177208571Y-116708571D01*
X175708571Y-116422857D02*
X175708571Y-115565714D01*
X177208571Y-115994285D02*
X175708571Y-115994285D01*
X175708571Y-115280000D02*
X175708571Y-114422857D01*
X177208571Y-114851428D02*
X175708571Y-114851428D01*
X177208571Y-113922857D02*
X176208571Y-113922857D01*
X175708571Y-113922857D02*
X175780000Y-113994286D01*
X175851429Y-113922857D01*
X175780000Y-113851429D01*
X175708571Y-113922857D01*
X175851429Y-113922857D01*
X176208571Y-113208571D02*
X177208571Y-113208571D01*
X176351429Y-113208571D02*
X176280000Y-113137143D01*
X176208571Y-112994285D01*
X176208571Y-112780000D01*
X176280000Y-112637143D01*
X176422857Y-112565714D01*
X177208571Y-112565714D01*
X176208571Y-111994285D02*
X177208571Y-111637142D01*
X176208571Y-111280000D02*
X177208571Y-111637142D01*
X177565714Y-111780000D01*
X177637143Y-111851428D01*
X177708571Y-111994285D01*
X176351429Y-110494285D02*
X176280000Y-110637143D01*
X176208571Y-110708571D01*
X176065714Y-110780000D01*
X175994286Y-110780000D01*
X175851429Y-110708571D01*
X175780000Y-110637143D01*
X175708571Y-110494285D01*
X175708571Y-110208571D01*
X175780000Y-110065714D01*
X175851429Y-109994285D01*
X175994286Y-109922857D01*
X176065714Y-109922857D01*
X176208571Y-109994285D01*
X176280000Y-110065714D01*
X176351429Y-110208571D01*
X176351429Y-110494285D01*
X176422857Y-110637143D01*
X176494286Y-110708571D01*
X176637143Y-110780000D01*
X176922857Y-110780000D01*
X177065714Y-110708571D01*
X177137143Y-110637143D01*
X177208571Y-110494285D01*
X177208571Y-110208571D01*
X177137143Y-110065714D01*
X177065714Y-109994285D01*
X176922857Y-109922857D01*
X176637143Y-109922857D01*
X176494286Y-109994285D01*
X176422857Y-110065714D01*
X176351429Y-110208571D01*
X175708571Y-108565714D02*
X175708571Y-109280000D01*
X176422857Y-109351429D01*
X176351429Y-109280000D01*
X176280000Y-109137143D01*
X176280000Y-108780000D01*
X176351429Y-108637143D01*
X176422857Y-108565714D01*
X176565714Y-108494286D01*
X176922857Y-108494286D01*
X177065714Y-108565714D01*
X177137143Y-108637143D01*
X177208571Y-108780000D01*
X177208571Y-109137143D01*
X177137143Y-109280000D01*
X177065714Y-109351429D01*
D13*
X172855000Y-106925000D02*
X172855000Y-108195000D01*
X180205000Y-106925000D02*
X180205000Y-108195000D01*
X180205000Y-119135000D02*
X180205000Y-117865000D01*
X172855000Y-119135000D02*
X172855000Y-117865000D01*
X172855000Y-106925000D02*
X180205000Y-106925000D01*
X172855000Y-119135000D02*
X180205000Y-119135000D01*
X172855000Y-108195000D02*
X171920000Y-108195000D01*
X163830000Y-110490000D02*
X163830000Y-118110000D01*
X166370000Y-110490000D02*
X166370000Y-118110000D01*
X166650000Y-107670000D02*
X166650000Y-109220000D01*
X163830000Y-118110000D02*
X166370000Y-118110000D01*
X166370000Y-110490000D02*
X163830000Y-110490000D01*
X163550000Y-109220000D02*
X163550000Y-107670000D01*
X163550000Y-107670000D02*
X166650000Y-107670000D01*
X189230000Y-115570000D02*
X189230000Y-107950000D01*
X186690000Y-115570000D02*
X186690000Y-107950000D01*
X186410000Y-118390000D02*
X186410000Y-116840000D01*
X189230000Y-107950000D02*
X186690000Y-107950000D01*
X186690000Y-115570000D02*
X189230000Y-115570000D01*
X189510000Y-116840000D02*
X189510000Y-118390000D01*
X189510000Y-118390000D02*
X186410000Y-118390000D01*
X183256200Y-97500440D02*
X183256200Y-105699560D01*
X183654980Y-97500440D02*
X183654980Y-105699560D01*
X188955960Y-97500440D02*
X188955960Y-105699560D01*
X189453800Y-105699560D02*
X189453800Y-97500440D01*
X188955960Y-100299520D02*
X189453800Y-100299520D01*
X189453800Y-105498900D02*
X188955960Y-105498900D01*
X188955960Y-97698560D02*
X189453800Y-97698560D01*
X189453800Y-102897940D02*
X188955960Y-102897940D01*
X189453800Y-97500440D02*
X183256200Y-97500440D01*
X183256200Y-105697020D02*
X189453800Y-105697020D01*
X168910000Y-97790000D02*
X163830000Y-97790000D01*
X171730000Y-97510000D02*
X171730000Y-99060000D01*
X171450000Y-100330000D02*
X168910000Y-100330000D01*
X168910000Y-100330000D02*
X168910000Y-97790000D01*
X163830000Y-97790000D02*
X163830000Y-102870000D01*
X163830000Y-102870000D02*
X168910000Y-102870000D01*
X171730000Y-97510000D02*
X170180000Y-97510000D01*
X171450000Y-102870000D02*
X171450000Y-100330000D01*
X168910000Y-102870000D02*
X171450000Y-102870000D01*
X175040000Y-101337000D02*
X175040000Y-97737000D01*
X172940000Y-101337000D02*
X172940000Y-97737000D01*
X173690000Y-99287000D02*
X174290000Y-99287000D01*
X174290000Y-99287000D02*
X173990000Y-99587000D01*
X173990000Y-99587000D02*
X173790000Y-99387000D01*
X173790000Y-99387000D02*
X174040000Y-99387000D01*
X174040000Y-99387000D02*
X173990000Y-99437000D01*
X173490000Y-99687000D02*
X174490000Y-99687000D01*
X173990000Y-99187000D02*
X173990000Y-98687000D01*
X173990000Y-99687000D02*
X173490000Y-99187000D01*
X173490000Y-99187000D02*
X174490000Y-99187000D01*
X174490000Y-99187000D02*
X173990000Y-99687000D01*
X171743810Y-106497381D02*
X171743810Y-105497381D01*
X172791429Y-106402143D02*
X172743810Y-106449762D01*
X172600953Y-106497381D01*
X172505715Y-106497381D01*
X172362857Y-106449762D01*
X172267619Y-106354524D01*
X172220000Y-106259286D01*
X172172381Y-106068810D01*
X172172381Y-105925952D01*
X172220000Y-105735476D01*
X172267619Y-105640238D01*
X172362857Y-105545000D01*
X172505715Y-105497381D01*
X172600953Y-105497381D01*
X172743810Y-105545000D01*
X172791429Y-105592619D01*
X173743810Y-106497381D02*
X173172381Y-106497381D01*
X173458095Y-106497381D02*
X173458095Y-105497381D01*
X173362857Y-105640238D01*
X173267619Y-105735476D01*
X173172381Y-105783095D01*
X176442381Y-99925095D02*
X175442381Y-99925095D01*
X175442381Y-99687000D01*
X175490000Y-99544142D01*
X175585238Y-99448904D01*
X175680476Y-99401285D01*
X175870952Y-99353666D01*
X176013810Y-99353666D01*
X176204286Y-99401285D01*
X176299524Y-99448904D01*
X176394762Y-99544142D01*
X176442381Y-99687000D01*
X176442381Y-99925095D01*
X175537619Y-98972714D02*
X175490000Y-98925095D01*
X175442381Y-98829857D01*
X175442381Y-98591761D01*
X175490000Y-98496523D01*
X175537619Y-98448904D01*
X175632857Y-98401285D01*
X175728095Y-98401285D01*
X175870952Y-98448904D01*
X176442381Y-99020333D01*
X176442381Y-98401285D01*
%LPC*%
D14*
X172720000Y-109220000D03*
X172720000Y-111760000D03*
X172720000Y-114300000D03*
X172720000Y-116840000D03*
X180340000Y-116840000D03*
X180340000Y-114300000D03*
X180340000Y-111760000D03*
X180340000Y-109220000D03*
D15*
X165100000Y-109220000D03*
X165100000Y-111760000D03*
X165100000Y-114300000D03*
X165100000Y-116840000D03*
X187960000Y-116840000D03*
X187960000Y-114300000D03*
X187960000Y-111760000D03*
X187960000Y-109220000D03*
D16*
X186355000Y-99060000D03*
D17*
X186355000Y-104140000D03*
D16*
X186355000Y-101600000D03*
D18*
X170180000Y-99060000D03*
D19*
X170180000Y-101600000D03*
X167640000Y-99060000D03*
X167640000Y-101600000D03*
X165100000Y-99060000D03*
X165100000Y-101600000D03*
D20*
X173990000Y-97767140D03*
X173990000Y-100606860D03*
M02*
