G04 #@! TF.FileFunction,Copper,L2,Bot,Signal*
%FSLAX46Y46*%
G04 Gerber Fmt 4.6, Leading zero omitted, Abs format (unit mm)*
G04 Created by KiCad (PCBNEW 4.0.1-stable) date 26.1.2016 16.01.09*
%MOMM*%
G01*
G04 APERTURE LIST*
%ADD10C,0.100000*%
%ADD11R,1.250000X1.000000*%
%ADD12R,1.800860X2.499360*%
%ADD13O,1.600000X1.600000*%
%ADD14O,2.032000X1.727200*%
%ADD15O,1.998980X1.998980*%
%ADD16R,1.998980X1.998980*%
%ADD17R,1.727200X1.727200*%
%ADD18O,1.727200X1.727200*%
%ADD19R,1.700000X0.900000*%
%ADD20R,3.657600X2.032000*%
%ADD21R,1.016000X2.032000*%
%ADD22C,0.685800*%
%ADD23C,0.500000*%
%ADD24C,0.250000*%
%ADD25C,0.200000*%
G04 APERTURE END LIST*
D10*
D11*
X178245200Y-109227620D03*
X178245200Y-111227620D03*
X176145200Y-109227620D03*
X176145200Y-111227620D03*
D12*
X177347880Y-113708180D03*
X177347880Y-117706140D03*
D13*
X172720000Y-109220000D03*
X172720000Y-111760000D03*
X172720000Y-114300000D03*
X172720000Y-116840000D03*
X180340000Y-116840000D03*
X180340000Y-114300000D03*
X180340000Y-111760000D03*
X180340000Y-109220000D03*
D14*
X167640000Y-109220000D03*
X167640000Y-111760000D03*
X167640000Y-114300000D03*
X167640000Y-116840000D03*
X185420000Y-116840000D03*
X185420000Y-114300000D03*
X185420000Y-111760000D03*
X185420000Y-109220000D03*
D15*
X184597040Y-99738180D03*
D16*
X184597040Y-104818180D03*
D15*
X184597040Y-102278180D03*
D17*
X172720000Y-99720400D03*
D18*
X172720000Y-102260400D03*
X170180000Y-99720400D03*
X170180000Y-102260400D03*
X167640000Y-99720400D03*
X167640000Y-102260400D03*
D19*
X182575200Y-109201880D03*
X182575200Y-106301880D03*
X170421300Y-108074800D03*
X170421300Y-110974800D03*
D20*
X177723800Y-99466400D03*
D21*
X177723800Y-106070400D03*
X175437800Y-106070400D03*
X180009800Y-106070400D03*
D19*
X172499020Y-107632160D03*
X172499020Y-104732160D03*
D22*
X182422800Y-98831400D03*
X174345600Y-106502200D03*
X174345600Y-110845600D03*
X172516800Y-105968800D03*
D23*
X177347880Y-117706140D02*
X178310540Y-117706140D01*
X178310540Y-117706140D02*
X179374800Y-118770400D01*
X179374800Y-118770400D02*
X181559200Y-118770400D01*
X181559200Y-118770400D02*
X182575200Y-117754400D01*
X182575200Y-117754400D02*
X182575200Y-109201880D01*
X177723800Y-99466400D02*
X181787800Y-99466400D01*
X181787800Y-99466400D02*
X182422800Y-98831400D01*
X177723800Y-106070400D02*
X177723800Y-104216200D01*
X177723800Y-104216200D02*
X179661820Y-102278180D01*
X179661820Y-102278180D02*
X183183548Y-102278180D01*
X183183548Y-102278180D02*
X184597040Y-102278180D01*
X177723800Y-99466400D02*
X177723800Y-100982400D01*
X177723800Y-100982400D02*
X176445800Y-102260400D01*
X176445800Y-102260400D02*
X173941314Y-102260400D01*
X173941314Y-102260400D02*
X172720000Y-102260400D01*
X180340000Y-109220000D02*
X182557080Y-109220000D01*
X182557080Y-109220000D02*
X182575200Y-109201880D01*
X177723800Y-106070400D02*
X177723800Y-108706220D01*
X177723800Y-108706220D02*
X178245200Y-109227620D01*
X172499020Y-107632160D02*
X174549740Y-107632160D01*
X174549740Y-107632160D02*
X176145200Y-109227620D01*
X172499020Y-107632160D02*
X170863940Y-107632160D01*
X170863940Y-107632160D02*
X170421300Y-108074800D01*
X178245200Y-109227620D02*
X176145200Y-109227620D01*
X180340000Y-109220000D02*
X178252820Y-109220000D01*
X178252820Y-109220000D02*
X178245200Y-109227620D01*
D24*
X170421300Y-108074800D02*
X170821300Y-108074800D01*
D23*
X174345600Y-112106330D02*
X174345600Y-110845600D01*
X175947450Y-113708180D02*
X174345600Y-112106330D01*
X177347880Y-113708180D02*
X175947450Y-113708180D01*
X174345600Y-106502200D02*
X175006000Y-106502200D01*
X175006000Y-106502200D02*
X175437800Y-106070400D01*
X184597040Y-99738180D02*
X182481220Y-99738180D01*
X182481220Y-99738180D02*
X180771800Y-101447600D01*
X180771800Y-101447600D02*
X178816000Y-101447600D01*
X178816000Y-101447600D02*
X175437800Y-104825800D01*
X175437800Y-104825800D02*
X175437800Y-106070400D01*
D24*
X172720000Y-109220000D02*
X170965200Y-110974800D01*
X170965200Y-110974800D02*
X170421300Y-110974800D01*
D25*
X172499020Y-104732160D02*
X172499020Y-105951020D01*
X172499020Y-105951020D02*
X172516800Y-105968800D01*
G36*
X186239055Y-98234997D02*
X186359904Y-98271483D01*
X186471366Y-98330748D01*
X186569192Y-98410533D01*
X186649661Y-98507804D01*
X186709700Y-98618844D01*
X186747030Y-98739439D01*
X186762040Y-98882246D01*
X186762040Y-118388842D01*
X186747923Y-118532814D01*
X186711437Y-118653664D01*
X186652171Y-118765128D01*
X186572386Y-118862953D01*
X186475120Y-118943418D01*
X186364076Y-119003460D01*
X186243481Y-119040790D01*
X186100673Y-119055800D01*
X182051618Y-119055800D01*
X182964109Y-118143309D01*
X182996350Y-118104057D01*
X183029012Y-118065132D01*
X183030407Y-118062595D01*
X183032241Y-118060362D01*
X183056252Y-118015583D01*
X183080724Y-117971068D01*
X183081598Y-117968314D01*
X183082966Y-117965762D01*
X183097833Y-117917133D01*
X183113181Y-117868751D01*
X183113503Y-117865879D01*
X183114349Y-117863112D01*
X183119488Y-117812525D01*
X183125146Y-117762079D01*
X183125186Y-117756431D01*
X183125197Y-117756320D01*
X183125187Y-117756213D01*
X183125200Y-117754400D01*
X183125200Y-116831877D01*
X184097660Y-116831877D01*
X184118243Y-117058037D01*
X184182361Y-117275892D01*
X184287573Y-117477145D01*
X184429872Y-117654128D01*
X184603836Y-117800102D01*
X184802841Y-117909506D01*
X185019306Y-117978173D01*
X185244986Y-118003487D01*
X185261232Y-118003600D01*
X185578768Y-118003600D01*
X185804779Y-117981439D01*
X186022181Y-117915802D01*
X186222694Y-117809187D01*
X186398680Y-117665657D01*
X186543436Y-117490677D01*
X186651448Y-117290913D01*
X186718602Y-117073974D01*
X186742340Y-116848123D01*
X186721757Y-116621963D01*
X186657639Y-116404108D01*
X186552427Y-116202855D01*
X186410128Y-116025872D01*
X186236164Y-115879898D01*
X186037159Y-115770494D01*
X185820694Y-115701827D01*
X185595014Y-115676513D01*
X185578768Y-115676400D01*
X185261232Y-115676400D01*
X185035221Y-115698561D01*
X184817819Y-115764198D01*
X184617306Y-115870813D01*
X184441320Y-116014343D01*
X184296564Y-116189323D01*
X184188552Y-116389087D01*
X184121398Y-116606026D01*
X184097660Y-116831877D01*
X183125200Y-116831877D01*
X183125200Y-114291877D01*
X184097660Y-114291877D01*
X184118243Y-114518037D01*
X184182361Y-114735892D01*
X184287573Y-114937145D01*
X184429872Y-115114128D01*
X184603836Y-115260102D01*
X184802841Y-115369506D01*
X185019306Y-115438173D01*
X185244986Y-115463487D01*
X185261232Y-115463600D01*
X185578768Y-115463600D01*
X185804779Y-115441439D01*
X186022181Y-115375802D01*
X186222694Y-115269187D01*
X186398680Y-115125657D01*
X186543436Y-114950677D01*
X186651448Y-114750913D01*
X186718602Y-114533974D01*
X186742340Y-114308123D01*
X186721757Y-114081963D01*
X186657639Y-113864108D01*
X186552427Y-113662855D01*
X186410128Y-113485872D01*
X186236164Y-113339898D01*
X186037159Y-113230494D01*
X185820694Y-113161827D01*
X185595014Y-113136513D01*
X185578768Y-113136400D01*
X185261232Y-113136400D01*
X185035221Y-113158561D01*
X184817819Y-113224198D01*
X184617306Y-113330813D01*
X184441320Y-113474343D01*
X184296564Y-113649323D01*
X184188552Y-113849087D01*
X184121398Y-114066026D01*
X184097660Y-114291877D01*
X183125200Y-114291877D01*
X183125200Y-111751877D01*
X184097660Y-111751877D01*
X184118243Y-111978037D01*
X184182361Y-112195892D01*
X184287573Y-112397145D01*
X184429872Y-112574128D01*
X184603836Y-112720102D01*
X184802841Y-112829506D01*
X185019306Y-112898173D01*
X185244986Y-112923487D01*
X185261232Y-112923600D01*
X185578768Y-112923600D01*
X185804779Y-112901439D01*
X186022181Y-112835802D01*
X186222694Y-112729187D01*
X186398680Y-112585657D01*
X186543436Y-112410677D01*
X186651448Y-112210913D01*
X186718602Y-111993974D01*
X186742340Y-111768123D01*
X186721757Y-111541963D01*
X186657639Y-111324108D01*
X186552427Y-111122855D01*
X186410128Y-110945872D01*
X186236164Y-110799898D01*
X186037159Y-110690494D01*
X185820694Y-110621827D01*
X185595014Y-110596513D01*
X185578768Y-110596400D01*
X185261232Y-110596400D01*
X185035221Y-110618561D01*
X184817819Y-110684198D01*
X184617306Y-110790813D01*
X184441320Y-110934343D01*
X184296564Y-111109323D01*
X184188552Y-111309087D01*
X184121398Y-111526026D01*
X184097660Y-111751877D01*
X183125200Y-111751877D01*
X183125200Y-109953331D01*
X183425200Y-109953331D01*
X183472974Y-109949521D01*
X183554003Y-109924428D01*
X183624834Y-109877754D01*
X183679857Y-109813195D01*
X183714716Y-109735862D01*
X183726651Y-109651880D01*
X183726651Y-109211877D01*
X184097660Y-109211877D01*
X184118243Y-109438037D01*
X184182361Y-109655892D01*
X184287573Y-109857145D01*
X184429872Y-110034128D01*
X184603836Y-110180102D01*
X184802841Y-110289506D01*
X185019306Y-110358173D01*
X185244986Y-110383487D01*
X185261232Y-110383600D01*
X185578768Y-110383600D01*
X185804779Y-110361439D01*
X186022181Y-110295802D01*
X186222694Y-110189187D01*
X186398680Y-110045657D01*
X186543436Y-109870677D01*
X186651448Y-109670913D01*
X186718602Y-109453974D01*
X186742340Y-109228123D01*
X186721757Y-109001963D01*
X186657639Y-108784108D01*
X186552427Y-108582855D01*
X186410128Y-108405872D01*
X186236164Y-108259898D01*
X186037159Y-108150494D01*
X185820694Y-108081827D01*
X185595014Y-108056513D01*
X185578768Y-108056400D01*
X185261232Y-108056400D01*
X185035221Y-108078561D01*
X184817819Y-108144198D01*
X184617306Y-108250813D01*
X184441320Y-108394343D01*
X184296564Y-108569323D01*
X184188552Y-108769087D01*
X184121398Y-108986026D01*
X184097660Y-109211877D01*
X183726651Y-109211877D01*
X183726651Y-108751880D01*
X183722841Y-108704106D01*
X183697748Y-108623077D01*
X183651074Y-108552246D01*
X183586515Y-108497223D01*
X183509182Y-108462364D01*
X183425200Y-108450429D01*
X181725200Y-108450429D01*
X181677426Y-108454239D01*
X181596397Y-108479332D01*
X181525566Y-108526006D01*
X181470543Y-108590565D01*
X181435684Y-108667898D01*
X181435385Y-108670000D01*
X181293115Y-108670000D01*
X181265763Y-108617680D01*
X181131242Y-108450370D01*
X180966786Y-108312375D01*
X180778658Y-108208951D01*
X180574025Y-108144038D01*
X180360680Y-108120107D01*
X180345322Y-108120000D01*
X180334678Y-108120000D01*
X180121020Y-108140949D01*
X179915501Y-108202999D01*
X179725947Y-108303787D01*
X179559580Y-108439472D01*
X179422737Y-108604888D01*
X179387531Y-108670000D01*
X179164792Y-108670000D01*
X179142748Y-108598817D01*
X179096074Y-108527986D01*
X179031515Y-108472963D01*
X178954182Y-108438104D01*
X178870200Y-108426169D01*
X178273800Y-108426169D01*
X178273800Y-107384501D01*
X178279574Y-107384041D01*
X178360603Y-107358948D01*
X178431434Y-107312274D01*
X178486457Y-107247715D01*
X178521316Y-107170382D01*
X178533251Y-107086400D01*
X178533251Y-106376400D01*
X178893800Y-106376400D01*
X178893800Y-107146283D01*
X178917165Y-107263747D01*
X178962997Y-107374396D01*
X179029535Y-107473977D01*
X179114222Y-107558664D01*
X179213804Y-107625203D01*
X179324453Y-107671035D01*
X179441917Y-107694400D01*
X179703800Y-107694400D01*
X179855800Y-107542400D01*
X179855800Y-106224400D01*
X180163800Y-106224400D01*
X180163800Y-107542400D01*
X180315800Y-107694400D01*
X180577683Y-107694400D01*
X180695147Y-107671035D01*
X180805796Y-107625203D01*
X180905378Y-107558664D01*
X180990065Y-107473977D01*
X181056603Y-107374396D01*
X181102435Y-107263747D01*
X181125800Y-107146283D01*
X181125800Y-106854998D01*
X181140565Y-106929227D01*
X181186397Y-107039876D01*
X181252936Y-107139458D01*
X181337623Y-107224145D01*
X181437204Y-107290683D01*
X181547853Y-107336515D01*
X181665317Y-107359880D01*
X182269200Y-107359880D01*
X182421200Y-107207880D01*
X182421200Y-106455880D01*
X181269200Y-106455880D01*
X181125800Y-106599280D01*
X181125800Y-106376400D01*
X180973800Y-106224400D01*
X180163800Y-106224400D01*
X179855800Y-106224400D01*
X179045800Y-106224400D01*
X178893800Y-106376400D01*
X178533251Y-106376400D01*
X178533251Y-105054400D01*
X178529441Y-105006626D01*
X178525692Y-104994517D01*
X178893800Y-104994517D01*
X178893800Y-105764400D01*
X179045800Y-105916400D01*
X179855800Y-105916400D01*
X179855800Y-104598400D01*
X180163800Y-104598400D01*
X180163800Y-105916400D01*
X180973800Y-105916400D01*
X181121917Y-105768283D01*
X181117200Y-105791997D01*
X181117200Y-105995880D01*
X181269200Y-106147880D01*
X182421200Y-106147880D01*
X182421200Y-105395880D01*
X182729200Y-105395880D01*
X182729200Y-106147880D01*
X182749200Y-106147880D01*
X182749200Y-106455880D01*
X182729200Y-106455880D01*
X182729200Y-107207880D01*
X182881200Y-107359880D01*
X183485083Y-107359880D01*
X183602547Y-107336515D01*
X183713196Y-107290683D01*
X183812777Y-107224145D01*
X183897464Y-107139458D01*
X183964003Y-107039876D01*
X184009835Y-106929227D01*
X184033200Y-106811763D01*
X184033200Y-106607880D01*
X183881202Y-106455882D01*
X184033200Y-106455882D01*
X184033200Y-106425670D01*
X184291040Y-106425670D01*
X184443040Y-106273670D01*
X184443040Y-104972180D01*
X184751040Y-104972180D01*
X184751040Y-106273670D01*
X184903040Y-106425670D01*
X185656413Y-106425670D01*
X185773877Y-106402305D01*
X185884526Y-106356473D01*
X185984107Y-106289935D01*
X186068794Y-106205248D01*
X186135333Y-106105666D01*
X186181165Y-105995017D01*
X186204530Y-105877553D01*
X186204530Y-105124180D01*
X186052530Y-104972180D01*
X184751040Y-104972180D01*
X184443040Y-104972180D01*
X183141550Y-104972180D01*
X182989550Y-105124180D01*
X182989550Y-105243880D01*
X182881200Y-105243880D01*
X182729200Y-105395880D01*
X182421200Y-105395880D01*
X182269200Y-105243880D01*
X181665317Y-105243880D01*
X181547853Y-105267245D01*
X181437204Y-105313077D01*
X181337623Y-105379615D01*
X181252936Y-105464302D01*
X181186397Y-105563884D01*
X181140565Y-105674533D01*
X181125800Y-105748762D01*
X181125800Y-104994517D01*
X181102435Y-104877053D01*
X181056603Y-104766404D01*
X180990065Y-104666823D01*
X180905378Y-104582136D01*
X180805796Y-104515597D01*
X180695147Y-104469765D01*
X180577683Y-104446400D01*
X180315800Y-104446400D01*
X180163800Y-104598400D01*
X179855800Y-104598400D01*
X179703800Y-104446400D01*
X179441917Y-104446400D01*
X179324453Y-104469765D01*
X179213804Y-104515597D01*
X179114222Y-104582136D01*
X179029535Y-104666823D01*
X178962997Y-104766404D01*
X178917165Y-104877053D01*
X178893800Y-104994517D01*
X178525692Y-104994517D01*
X178504348Y-104925597D01*
X178457674Y-104854766D01*
X178393115Y-104799743D01*
X178315782Y-104764884D01*
X178273800Y-104758918D01*
X178273800Y-104444018D01*
X179889638Y-102828180D01*
X183421398Y-102828180D01*
X183514667Y-103003595D01*
X183674960Y-103200133D01*
X183687721Y-103210690D01*
X183537667Y-103210690D01*
X183420203Y-103234055D01*
X183309554Y-103279887D01*
X183209973Y-103346425D01*
X183125286Y-103431112D01*
X183058747Y-103530694D01*
X183012915Y-103641343D01*
X182989550Y-103758807D01*
X182989550Y-104512180D01*
X183141550Y-104664180D01*
X184443040Y-104664180D01*
X184443040Y-104644180D01*
X184751040Y-104644180D01*
X184751040Y-104664180D01*
X186052530Y-104664180D01*
X186204530Y-104512180D01*
X186204530Y-103758807D01*
X186181165Y-103641343D01*
X186135333Y-103530694D01*
X186068794Y-103431112D01*
X185984107Y-103346425D01*
X185884526Y-103279887D01*
X185773877Y-103234055D01*
X185656413Y-103210690D01*
X185508116Y-103210690D01*
X185669267Y-103018637D01*
X185791447Y-102796392D01*
X185868133Y-102554647D01*
X185896403Y-102302612D01*
X185896530Y-102284468D01*
X185896530Y-102271892D01*
X185871781Y-102019486D01*
X185798478Y-101776695D01*
X185679413Y-101552765D01*
X185519120Y-101356227D01*
X185323706Y-101194566D01*
X185100613Y-101073940D01*
X184886089Y-101007534D01*
X185083838Y-100949334D01*
X185308593Y-100831835D01*
X185506246Y-100672918D01*
X185669267Y-100478637D01*
X185791447Y-100256392D01*
X185868133Y-100014647D01*
X185896403Y-99762612D01*
X185896530Y-99744468D01*
X185896530Y-99731892D01*
X185871781Y-99479486D01*
X185798478Y-99236695D01*
X185679413Y-99012765D01*
X185519120Y-98816227D01*
X185323706Y-98654566D01*
X185100613Y-98533940D01*
X184858339Y-98458944D01*
X184606112Y-98432434D01*
X184353540Y-98455420D01*
X184110242Y-98527026D01*
X183885487Y-98644525D01*
X183687834Y-98803442D01*
X183524813Y-98997723D01*
X183420109Y-99188180D01*
X182957917Y-99188180D01*
X182984503Y-99150492D01*
X183035784Y-99035313D01*
X183063717Y-98912367D01*
X183065728Y-98768360D01*
X183041239Y-98644682D01*
X182993194Y-98528116D01*
X182923423Y-98423102D01*
X182834583Y-98333640D01*
X182730058Y-98263137D01*
X182629534Y-98220881D01*
X186095092Y-98220881D01*
X186239055Y-98234997D01*
X186239055Y-98234997D01*
G37*
X186239055Y-98234997D02*
X186359904Y-98271483D01*
X186471366Y-98330748D01*
X186569192Y-98410533D01*
X186649661Y-98507804D01*
X186709700Y-98618844D01*
X186747030Y-98739439D01*
X186762040Y-98882246D01*
X186762040Y-118388842D01*
X186747923Y-118532814D01*
X186711437Y-118653664D01*
X186652171Y-118765128D01*
X186572386Y-118862953D01*
X186475120Y-118943418D01*
X186364076Y-119003460D01*
X186243481Y-119040790D01*
X186100673Y-119055800D01*
X182051618Y-119055800D01*
X182964109Y-118143309D01*
X182996350Y-118104057D01*
X183029012Y-118065132D01*
X183030407Y-118062595D01*
X183032241Y-118060362D01*
X183056252Y-118015583D01*
X183080724Y-117971068D01*
X183081598Y-117968314D01*
X183082966Y-117965762D01*
X183097833Y-117917133D01*
X183113181Y-117868751D01*
X183113503Y-117865879D01*
X183114349Y-117863112D01*
X183119488Y-117812525D01*
X183125146Y-117762079D01*
X183125186Y-117756431D01*
X183125197Y-117756320D01*
X183125187Y-117756213D01*
X183125200Y-117754400D01*
X183125200Y-116831877D01*
X184097660Y-116831877D01*
X184118243Y-117058037D01*
X184182361Y-117275892D01*
X184287573Y-117477145D01*
X184429872Y-117654128D01*
X184603836Y-117800102D01*
X184802841Y-117909506D01*
X185019306Y-117978173D01*
X185244986Y-118003487D01*
X185261232Y-118003600D01*
X185578768Y-118003600D01*
X185804779Y-117981439D01*
X186022181Y-117915802D01*
X186222694Y-117809187D01*
X186398680Y-117665657D01*
X186543436Y-117490677D01*
X186651448Y-117290913D01*
X186718602Y-117073974D01*
X186742340Y-116848123D01*
X186721757Y-116621963D01*
X186657639Y-116404108D01*
X186552427Y-116202855D01*
X186410128Y-116025872D01*
X186236164Y-115879898D01*
X186037159Y-115770494D01*
X185820694Y-115701827D01*
X185595014Y-115676513D01*
X185578768Y-115676400D01*
X185261232Y-115676400D01*
X185035221Y-115698561D01*
X184817819Y-115764198D01*
X184617306Y-115870813D01*
X184441320Y-116014343D01*
X184296564Y-116189323D01*
X184188552Y-116389087D01*
X184121398Y-116606026D01*
X184097660Y-116831877D01*
X183125200Y-116831877D01*
X183125200Y-114291877D01*
X184097660Y-114291877D01*
X184118243Y-114518037D01*
X184182361Y-114735892D01*
X184287573Y-114937145D01*
X184429872Y-115114128D01*
X184603836Y-115260102D01*
X184802841Y-115369506D01*
X185019306Y-115438173D01*
X185244986Y-115463487D01*
X185261232Y-115463600D01*
X185578768Y-115463600D01*
X185804779Y-115441439D01*
X186022181Y-115375802D01*
X186222694Y-115269187D01*
X186398680Y-115125657D01*
X186543436Y-114950677D01*
X186651448Y-114750913D01*
X186718602Y-114533974D01*
X186742340Y-114308123D01*
X186721757Y-114081963D01*
X186657639Y-113864108D01*
X186552427Y-113662855D01*
X186410128Y-113485872D01*
X186236164Y-113339898D01*
X186037159Y-113230494D01*
X185820694Y-113161827D01*
X185595014Y-113136513D01*
X185578768Y-113136400D01*
X185261232Y-113136400D01*
X185035221Y-113158561D01*
X184817819Y-113224198D01*
X184617306Y-113330813D01*
X184441320Y-113474343D01*
X184296564Y-113649323D01*
X184188552Y-113849087D01*
X184121398Y-114066026D01*
X184097660Y-114291877D01*
X183125200Y-114291877D01*
X183125200Y-111751877D01*
X184097660Y-111751877D01*
X184118243Y-111978037D01*
X184182361Y-112195892D01*
X184287573Y-112397145D01*
X184429872Y-112574128D01*
X184603836Y-112720102D01*
X184802841Y-112829506D01*
X185019306Y-112898173D01*
X185244986Y-112923487D01*
X185261232Y-112923600D01*
X185578768Y-112923600D01*
X185804779Y-112901439D01*
X186022181Y-112835802D01*
X186222694Y-112729187D01*
X186398680Y-112585657D01*
X186543436Y-112410677D01*
X186651448Y-112210913D01*
X186718602Y-111993974D01*
X186742340Y-111768123D01*
X186721757Y-111541963D01*
X186657639Y-111324108D01*
X186552427Y-111122855D01*
X186410128Y-110945872D01*
X186236164Y-110799898D01*
X186037159Y-110690494D01*
X185820694Y-110621827D01*
X185595014Y-110596513D01*
X185578768Y-110596400D01*
X185261232Y-110596400D01*
X185035221Y-110618561D01*
X184817819Y-110684198D01*
X184617306Y-110790813D01*
X184441320Y-110934343D01*
X184296564Y-111109323D01*
X184188552Y-111309087D01*
X184121398Y-111526026D01*
X184097660Y-111751877D01*
X183125200Y-111751877D01*
X183125200Y-109953331D01*
X183425200Y-109953331D01*
X183472974Y-109949521D01*
X183554003Y-109924428D01*
X183624834Y-109877754D01*
X183679857Y-109813195D01*
X183714716Y-109735862D01*
X183726651Y-109651880D01*
X183726651Y-109211877D01*
X184097660Y-109211877D01*
X184118243Y-109438037D01*
X184182361Y-109655892D01*
X184287573Y-109857145D01*
X184429872Y-110034128D01*
X184603836Y-110180102D01*
X184802841Y-110289506D01*
X185019306Y-110358173D01*
X185244986Y-110383487D01*
X185261232Y-110383600D01*
X185578768Y-110383600D01*
X185804779Y-110361439D01*
X186022181Y-110295802D01*
X186222694Y-110189187D01*
X186398680Y-110045657D01*
X186543436Y-109870677D01*
X186651448Y-109670913D01*
X186718602Y-109453974D01*
X186742340Y-109228123D01*
X186721757Y-109001963D01*
X186657639Y-108784108D01*
X186552427Y-108582855D01*
X186410128Y-108405872D01*
X186236164Y-108259898D01*
X186037159Y-108150494D01*
X185820694Y-108081827D01*
X185595014Y-108056513D01*
X185578768Y-108056400D01*
X185261232Y-108056400D01*
X185035221Y-108078561D01*
X184817819Y-108144198D01*
X184617306Y-108250813D01*
X184441320Y-108394343D01*
X184296564Y-108569323D01*
X184188552Y-108769087D01*
X184121398Y-108986026D01*
X184097660Y-109211877D01*
X183726651Y-109211877D01*
X183726651Y-108751880D01*
X183722841Y-108704106D01*
X183697748Y-108623077D01*
X183651074Y-108552246D01*
X183586515Y-108497223D01*
X183509182Y-108462364D01*
X183425200Y-108450429D01*
X181725200Y-108450429D01*
X181677426Y-108454239D01*
X181596397Y-108479332D01*
X181525566Y-108526006D01*
X181470543Y-108590565D01*
X181435684Y-108667898D01*
X181435385Y-108670000D01*
X181293115Y-108670000D01*
X181265763Y-108617680D01*
X181131242Y-108450370D01*
X180966786Y-108312375D01*
X180778658Y-108208951D01*
X180574025Y-108144038D01*
X180360680Y-108120107D01*
X180345322Y-108120000D01*
X180334678Y-108120000D01*
X180121020Y-108140949D01*
X179915501Y-108202999D01*
X179725947Y-108303787D01*
X179559580Y-108439472D01*
X179422737Y-108604888D01*
X179387531Y-108670000D01*
X179164792Y-108670000D01*
X179142748Y-108598817D01*
X179096074Y-108527986D01*
X179031515Y-108472963D01*
X178954182Y-108438104D01*
X178870200Y-108426169D01*
X178273800Y-108426169D01*
X178273800Y-107384501D01*
X178279574Y-107384041D01*
X178360603Y-107358948D01*
X178431434Y-107312274D01*
X178486457Y-107247715D01*
X178521316Y-107170382D01*
X178533251Y-107086400D01*
X178533251Y-106376400D01*
X178893800Y-106376400D01*
X178893800Y-107146283D01*
X178917165Y-107263747D01*
X178962997Y-107374396D01*
X179029535Y-107473977D01*
X179114222Y-107558664D01*
X179213804Y-107625203D01*
X179324453Y-107671035D01*
X179441917Y-107694400D01*
X179703800Y-107694400D01*
X179855800Y-107542400D01*
X179855800Y-106224400D01*
X180163800Y-106224400D01*
X180163800Y-107542400D01*
X180315800Y-107694400D01*
X180577683Y-107694400D01*
X180695147Y-107671035D01*
X180805796Y-107625203D01*
X180905378Y-107558664D01*
X180990065Y-107473977D01*
X181056603Y-107374396D01*
X181102435Y-107263747D01*
X181125800Y-107146283D01*
X181125800Y-106854998D01*
X181140565Y-106929227D01*
X181186397Y-107039876D01*
X181252936Y-107139458D01*
X181337623Y-107224145D01*
X181437204Y-107290683D01*
X181547853Y-107336515D01*
X181665317Y-107359880D01*
X182269200Y-107359880D01*
X182421200Y-107207880D01*
X182421200Y-106455880D01*
X181269200Y-106455880D01*
X181125800Y-106599280D01*
X181125800Y-106376400D01*
X180973800Y-106224400D01*
X180163800Y-106224400D01*
X179855800Y-106224400D01*
X179045800Y-106224400D01*
X178893800Y-106376400D01*
X178533251Y-106376400D01*
X178533251Y-105054400D01*
X178529441Y-105006626D01*
X178525692Y-104994517D01*
X178893800Y-104994517D01*
X178893800Y-105764400D01*
X179045800Y-105916400D01*
X179855800Y-105916400D01*
X179855800Y-104598400D01*
X180163800Y-104598400D01*
X180163800Y-105916400D01*
X180973800Y-105916400D01*
X181121917Y-105768283D01*
X181117200Y-105791997D01*
X181117200Y-105995880D01*
X181269200Y-106147880D01*
X182421200Y-106147880D01*
X182421200Y-105395880D01*
X182729200Y-105395880D01*
X182729200Y-106147880D01*
X182749200Y-106147880D01*
X182749200Y-106455880D01*
X182729200Y-106455880D01*
X182729200Y-107207880D01*
X182881200Y-107359880D01*
X183485083Y-107359880D01*
X183602547Y-107336515D01*
X183713196Y-107290683D01*
X183812777Y-107224145D01*
X183897464Y-107139458D01*
X183964003Y-107039876D01*
X184009835Y-106929227D01*
X184033200Y-106811763D01*
X184033200Y-106607880D01*
X183881202Y-106455882D01*
X184033200Y-106455882D01*
X184033200Y-106425670D01*
X184291040Y-106425670D01*
X184443040Y-106273670D01*
X184443040Y-104972180D01*
X184751040Y-104972180D01*
X184751040Y-106273670D01*
X184903040Y-106425670D01*
X185656413Y-106425670D01*
X185773877Y-106402305D01*
X185884526Y-106356473D01*
X185984107Y-106289935D01*
X186068794Y-106205248D01*
X186135333Y-106105666D01*
X186181165Y-105995017D01*
X186204530Y-105877553D01*
X186204530Y-105124180D01*
X186052530Y-104972180D01*
X184751040Y-104972180D01*
X184443040Y-104972180D01*
X183141550Y-104972180D01*
X182989550Y-105124180D01*
X182989550Y-105243880D01*
X182881200Y-105243880D01*
X182729200Y-105395880D01*
X182421200Y-105395880D01*
X182269200Y-105243880D01*
X181665317Y-105243880D01*
X181547853Y-105267245D01*
X181437204Y-105313077D01*
X181337623Y-105379615D01*
X181252936Y-105464302D01*
X181186397Y-105563884D01*
X181140565Y-105674533D01*
X181125800Y-105748762D01*
X181125800Y-104994517D01*
X181102435Y-104877053D01*
X181056603Y-104766404D01*
X180990065Y-104666823D01*
X180905378Y-104582136D01*
X180805796Y-104515597D01*
X180695147Y-104469765D01*
X180577683Y-104446400D01*
X180315800Y-104446400D01*
X180163800Y-104598400D01*
X179855800Y-104598400D01*
X179703800Y-104446400D01*
X179441917Y-104446400D01*
X179324453Y-104469765D01*
X179213804Y-104515597D01*
X179114222Y-104582136D01*
X179029535Y-104666823D01*
X178962997Y-104766404D01*
X178917165Y-104877053D01*
X178893800Y-104994517D01*
X178525692Y-104994517D01*
X178504348Y-104925597D01*
X178457674Y-104854766D01*
X178393115Y-104799743D01*
X178315782Y-104764884D01*
X178273800Y-104758918D01*
X178273800Y-104444018D01*
X179889638Y-102828180D01*
X183421398Y-102828180D01*
X183514667Y-103003595D01*
X183674960Y-103200133D01*
X183687721Y-103210690D01*
X183537667Y-103210690D01*
X183420203Y-103234055D01*
X183309554Y-103279887D01*
X183209973Y-103346425D01*
X183125286Y-103431112D01*
X183058747Y-103530694D01*
X183012915Y-103641343D01*
X182989550Y-103758807D01*
X182989550Y-104512180D01*
X183141550Y-104664180D01*
X184443040Y-104664180D01*
X184443040Y-104644180D01*
X184751040Y-104644180D01*
X184751040Y-104664180D01*
X186052530Y-104664180D01*
X186204530Y-104512180D01*
X186204530Y-103758807D01*
X186181165Y-103641343D01*
X186135333Y-103530694D01*
X186068794Y-103431112D01*
X185984107Y-103346425D01*
X185884526Y-103279887D01*
X185773877Y-103234055D01*
X185656413Y-103210690D01*
X185508116Y-103210690D01*
X185669267Y-103018637D01*
X185791447Y-102796392D01*
X185868133Y-102554647D01*
X185896403Y-102302612D01*
X185896530Y-102284468D01*
X185896530Y-102271892D01*
X185871781Y-102019486D01*
X185798478Y-101776695D01*
X185679413Y-101552765D01*
X185519120Y-101356227D01*
X185323706Y-101194566D01*
X185100613Y-101073940D01*
X184886089Y-101007534D01*
X185083838Y-100949334D01*
X185308593Y-100831835D01*
X185506246Y-100672918D01*
X185669267Y-100478637D01*
X185791447Y-100256392D01*
X185868133Y-100014647D01*
X185896403Y-99762612D01*
X185896530Y-99744468D01*
X185896530Y-99731892D01*
X185871781Y-99479486D01*
X185798478Y-99236695D01*
X185679413Y-99012765D01*
X185519120Y-98816227D01*
X185323706Y-98654566D01*
X185100613Y-98533940D01*
X184858339Y-98458944D01*
X184606112Y-98432434D01*
X184353540Y-98455420D01*
X184110242Y-98527026D01*
X183885487Y-98644525D01*
X183687834Y-98803442D01*
X183524813Y-98997723D01*
X183420109Y-99188180D01*
X182957917Y-99188180D01*
X182984503Y-99150492D01*
X183035784Y-99035313D01*
X183063717Y-98912367D01*
X183065728Y-98768360D01*
X183041239Y-98644682D01*
X182993194Y-98528116D01*
X182923423Y-98423102D01*
X182834583Y-98333640D01*
X182730058Y-98263137D01*
X182629534Y-98220881D01*
X186095092Y-98220881D01*
X186239055Y-98234997D01*
G36*
X175695366Y-98224526D02*
X175640343Y-98289085D01*
X175605484Y-98366418D01*
X175593549Y-98450400D01*
X175593549Y-100482400D01*
X175597359Y-100530174D01*
X175622452Y-100611203D01*
X175669126Y-100682034D01*
X175733685Y-100737057D01*
X175811018Y-100771916D01*
X175895000Y-100783851D01*
X177144531Y-100783851D01*
X176217982Y-101710400D01*
X173742122Y-101710400D01*
X173689187Y-101610844D01*
X173545657Y-101434858D01*
X173370677Y-101290102D01*
X173170913Y-101182090D01*
X172953974Y-101114936D01*
X172728123Y-101091198D01*
X172501963Y-101111781D01*
X172284108Y-101175899D01*
X172082855Y-101281111D01*
X171905872Y-101423410D01*
X171759898Y-101597374D01*
X171650494Y-101796379D01*
X171581827Y-102012844D01*
X171556513Y-102238524D01*
X171556400Y-102254770D01*
X171556400Y-102266030D01*
X171578561Y-102492041D01*
X171644198Y-102709443D01*
X171750813Y-102909956D01*
X171894343Y-103085942D01*
X172069323Y-103230698D01*
X172269087Y-103338710D01*
X172486026Y-103405864D01*
X172711877Y-103429602D01*
X172938037Y-103409019D01*
X173155892Y-103344901D01*
X173357145Y-103239689D01*
X173534128Y-103097390D01*
X173680102Y-102923426D01*
X173742239Y-102810400D01*
X176445800Y-102810400D01*
X176496362Y-102805442D01*
X176546973Y-102801014D01*
X176549750Y-102800207D01*
X176552629Y-102799925D01*
X176601276Y-102785238D01*
X176650052Y-102771067D01*
X176652619Y-102769736D01*
X176655389Y-102768900D01*
X176700279Y-102745032D01*
X176745352Y-102721668D01*
X176747610Y-102719866D01*
X176750165Y-102718507D01*
X176789575Y-102686365D01*
X176829241Y-102654700D01*
X176833266Y-102650732D01*
X176833349Y-102650664D01*
X176833412Y-102650587D01*
X176834709Y-102649309D01*
X178112709Y-101371309D01*
X178144950Y-101332057D01*
X178177612Y-101293132D01*
X178179007Y-101290595D01*
X178180841Y-101288362D01*
X178204852Y-101243583D01*
X178229324Y-101199068D01*
X178230198Y-101196314D01*
X178231566Y-101193762D01*
X178246433Y-101145133D01*
X178261781Y-101096751D01*
X178262103Y-101093879D01*
X178262949Y-101091112D01*
X178268088Y-101040525D01*
X178273746Y-100990079D01*
X178273786Y-100984431D01*
X178273797Y-100984320D01*
X178273787Y-100984217D01*
X178273800Y-100982400D01*
X178273800Y-100783851D01*
X179552600Y-100783851D01*
X179600374Y-100780041D01*
X179681403Y-100754948D01*
X179752234Y-100708274D01*
X179807257Y-100643715D01*
X179842116Y-100566382D01*
X179854051Y-100482400D01*
X179854051Y-100016400D01*
X181425182Y-100016400D01*
X180543982Y-100897600D01*
X178816000Y-100897600D01*
X178765438Y-100902558D01*
X178714827Y-100906986D01*
X178712050Y-100907793D01*
X178709171Y-100908075D01*
X178660524Y-100922762D01*
X178611748Y-100936933D01*
X178609181Y-100938264D01*
X178606411Y-100939100D01*
X178561521Y-100962968D01*
X178516448Y-100986332D01*
X178514190Y-100988134D01*
X178511635Y-100989493D01*
X178472225Y-101021635D01*
X178432559Y-101053300D01*
X178428534Y-101057268D01*
X178428451Y-101057336D01*
X178428388Y-101057413D01*
X178427091Y-101058691D01*
X175048891Y-104436891D01*
X175016650Y-104476143D01*
X174983988Y-104515068D01*
X174982593Y-104517605D01*
X174980759Y-104519838D01*
X174956748Y-104564617D01*
X174932276Y-104609132D01*
X174931402Y-104611886D01*
X174930034Y-104614438D01*
X174915167Y-104663067D01*
X174899819Y-104711449D01*
X174899497Y-104714321D01*
X174898651Y-104717088D01*
X174894724Y-104755746D01*
X174882026Y-104756759D01*
X174800997Y-104781852D01*
X174730166Y-104828526D01*
X174675143Y-104893085D01*
X174640284Y-104970418D01*
X174628349Y-105054400D01*
X174628349Y-105923634D01*
X174536631Y-105885080D01*
X174413127Y-105859728D01*
X174287050Y-105858848D01*
X174163204Y-105882473D01*
X174046306Y-105929703D01*
X173940807Y-105998739D01*
X173850727Y-106086952D01*
X173779496Y-106190982D01*
X173729828Y-106306866D01*
X173703615Y-106430190D01*
X173701855Y-106556257D01*
X173724614Y-106680265D01*
X173771027Y-106797490D01*
X173839325Y-106903468D01*
X173926907Y-106994162D01*
X174030437Y-107066117D01*
X174067158Y-107082160D01*
X173630488Y-107082160D01*
X173621568Y-107053357D01*
X173574894Y-106982526D01*
X173510335Y-106927503D01*
X173433002Y-106892644D01*
X173349020Y-106880709D01*
X171649020Y-106880709D01*
X171601246Y-106884519D01*
X171520217Y-106909612D01*
X171449386Y-106956286D01*
X171394363Y-107020845D01*
X171366724Y-107082160D01*
X170863940Y-107082160D01*
X170813378Y-107087118D01*
X170762767Y-107091546D01*
X170759990Y-107092353D01*
X170757111Y-107092635D01*
X170708464Y-107107322D01*
X170659688Y-107121493D01*
X170657121Y-107122824D01*
X170654351Y-107123660D01*
X170609461Y-107147528D01*
X170564388Y-107170892D01*
X170562130Y-107172694D01*
X170559575Y-107174053D01*
X170520165Y-107206195D01*
X170480499Y-107237860D01*
X170476478Y-107241825D01*
X170476391Y-107241896D01*
X170476324Y-107241977D01*
X170475031Y-107243252D01*
X170394934Y-107323349D01*
X169571300Y-107323349D01*
X169523526Y-107327159D01*
X169442497Y-107352252D01*
X169371666Y-107398926D01*
X169316643Y-107463485D01*
X169281784Y-107540818D01*
X169269849Y-107624800D01*
X169269849Y-108524800D01*
X169273659Y-108572574D01*
X169298752Y-108653603D01*
X169345426Y-108724434D01*
X169409985Y-108779457D01*
X169487318Y-108814316D01*
X169571300Y-108826251D01*
X171271300Y-108826251D01*
X171319074Y-108822441D01*
X171400103Y-108797348D01*
X171470934Y-108750674D01*
X171525957Y-108686115D01*
X171560816Y-108608782D01*
X171572751Y-108524800D01*
X171572751Y-108372772D01*
X171649020Y-108383611D01*
X172008073Y-108383611D01*
X171939580Y-108439472D01*
X171802737Y-108604888D01*
X171700629Y-108793733D01*
X171637145Y-108998814D01*
X171614705Y-109212321D01*
X171634162Y-109426119D01*
X171694776Y-109632067D01*
X171698936Y-109640024D01*
X171115611Y-110223349D01*
X169571300Y-110223349D01*
X169523526Y-110227159D01*
X169442497Y-110252252D01*
X169371666Y-110298926D01*
X169316643Y-110363485D01*
X169281784Y-110440818D01*
X169269849Y-110524800D01*
X169269849Y-111424800D01*
X169273659Y-111472574D01*
X169298752Y-111553603D01*
X169345426Y-111624434D01*
X169409985Y-111679457D01*
X169487318Y-111714316D01*
X169571300Y-111726251D01*
X171271300Y-111726251D01*
X171319074Y-111722441D01*
X171400103Y-111697348D01*
X171470934Y-111650674D01*
X171525957Y-111586115D01*
X171560816Y-111508782D01*
X171572751Y-111424800D01*
X171572751Y-110968289D01*
X172303092Y-110237948D01*
X172485975Y-110295962D01*
X172699320Y-110319893D01*
X172714678Y-110320000D01*
X172725322Y-110320000D01*
X172938980Y-110299051D01*
X173144499Y-110237001D01*
X173334053Y-110136213D01*
X173500420Y-110000528D01*
X173637263Y-109835112D01*
X173739371Y-109646267D01*
X173802855Y-109441186D01*
X173825295Y-109227679D01*
X173805838Y-109013881D01*
X173745224Y-108807933D01*
X173645763Y-108617680D01*
X173511242Y-108450370D01*
X173418960Y-108372937D01*
X173477823Y-108354708D01*
X173548654Y-108308034D01*
X173603677Y-108243475D01*
X173631316Y-108182160D01*
X174321922Y-108182160D01*
X175218749Y-109078987D01*
X175218749Y-109727620D01*
X175222559Y-109775394D01*
X175247652Y-109856423D01*
X175294326Y-109927254D01*
X175358885Y-109982277D01*
X175436218Y-110017136D01*
X175520200Y-110029071D01*
X176770200Y-110029071D01*
X176817974Y-110025261D01*
X176899003Y-110000168D01*
X176969834Y-109953494D01*
X177024857Y-109888935D01*
X177059716Y-109811602D01*
X177064545Y-109777620D01*
X177323248Y-109777620D01*
X177347652Y-109856423D01*
X177394326Y-109927254D01*
X177458885Y-109982277D01*
X177536218Y-110017136D01*
X177620200Y-110029071D01*
X178870200Y-110029071D01*
X178917974Y-110025261D01*
X178999003Y-110000168D01*
X179069834Y-109953494D01*
X179124857Y-109888935D01*
X179159716Y-109811602D01*
X179165628Y-109770000D01*
X179386885Y-109770000D01*
X179414237Y-109822320D01*
X179548758Y-109989630D01*
X179713214Y-110127625D01*
X179901342Y-110231049D01*
X180105975Y-110295962D01*
X180319320Y-110319893D01*
X180334678Y-110320000D01*
X180345322Y-110320000D01*
X180558980Y-110299051D01*
X180764499Y-110237001D01*
X180954053Y-110136213D01*
X181120420Y-110000528D01*
X181257263Y-109835112D01*
X181292469Y-109770000D01*
X181449344Y-109770000D01*
X181452652Y-109780683D01*
X181499326Y-109851514D01*
X181563885Y-109906537D01*
X181641218Y-109941396D01*
X181725200Y-109953331D01*
X182025200Y-109953331D01*
X182025200Y-117526582D01*
X181331382Y-118220400D01*
X179602618Y-118220400D01*
X178699449Y-117317231D01*
X178660197Y-117284990D01*
X178621272Y-117252328D01*
X178618735Y-117250933D01*
X178616502Y-117249099D01*
X178571723Y-117225088D01*
X178549761Y-117213015D01*
X178549761Y-116832321D01*
X179234705Y-116832321D01*
X179254162Y-117046119D01*
X179314776Y-117252067D01*
X179414237Y-117442320D01*
X179548758Y-117609630D01*
X179713214Y-117747625D01*
X179901342Y-117851049D01*
X180105975Y-117915962D01*
X180319320Y-117939893D01*
X180334678Y-117940000D01*
X180345322Y-117940000D01*
X180558980Y-117919051D01*
X180764499Y-117857001D01*
X180954053Y-117756213D01*
X181120420Y-117620528D01*
X181257263Y-117455112D01*
X181359371Y-117266267D01*
X181422855Y-117061186D01*
X181445295Y-116847679D01*
X181425838Y-116633881D01*
X181365224Y-116427933D01*
X181265763Y-116237680D01*
X181131242Y-116070370D01*
X180966786Y-115932375D01*
X180778658Y-115828951D01*
X180574025Y-115764038D01*
X180360680Y-115740107D01*
X180345322Y-115740000D01*
X180334678Y-115740000D01*
X180121020Y-115760949D01*
X179915501Y-115822999D01*
X179725947Y-115923787D01*
X179559580Y-116059472D01*
X179422737Y-116224888D01*
X179320629Y-116413733D01*
X179257145Y-116618814D01*
X179234705Y-116832321D01*
X178549761Y-116832321D01*
X178549761Y-116456460D01*
X178545951Y-116408686D01*
X178520858Y-116327657D01*
X178474184Y-116256826D01*
X178409625Y-116201803D01*
X178332292Y-116166944D01*
X178248310Y-116155009D01*
X176447450Y-116155009D01*
X176399676Y-116158819D01*
X176318647Y-116183912D01*
X176247816Y-116230586D01*
X176192793Y-116295145D01*
X176157934Y-116372478D01*
X176145999Y-116456460D01*
X176145999Y-118955820D01*
X176149809Y-119003594D01*
X176165976Y-119055800D01*
X166797278Y-119055800D01*
X166653306Y-119041683D01*
X166532456Y-119005197D01*
X166420992Y-118945931D01*
X166323167Y-118866146D01*
X166242702Y-118768880D01*
X166182660Y-118657836D01*
X166145330Y-118537241D01*
X166130320Y-118394433D01*
X166130320Y-117398534D01*
X166150583Y-117454612D01*
X166296178Y-117703642D01*
X166487559Y-117919482D01*
X166717371Y-118093838D01*
X166976782Y-118220010D01*
X167255824Y-118293149D01*
X167486000Y-118159516D01*
X167486000Y-116994000D01*
X167794000Y-116994000D01*
X167794000Y-118159516D01*
X168024176Y-118293149D01*
X168303218Y-118220010D01*
X168562629Y-118093838D01*
X168792441Y-117919482D01*
X168983822Y-117703642D01*
X169129417Y-117454612D01*
X169213811Y-117221049D01*
X169208927Y-117211042D01*
X171361769Y-117211042D01*
X171384527Y-117286085D01*
X171497215Y-117538051D01*
X171656894Y-117763192D01*
X171857427Y-117952855D01*
X172091108Y-118099752D01*
X172348957Y-118198237D01*
X172566000Y-118087559D01*
X172566000Y-116994000D01*
X172874000Y-116994000D01*
X172874000Y-118087559D01*
X173091043Y-118198237D01*
X173348892Y-118099752D01*
X173582573Y-117952855D01*
X173783106Y-117763192D01*
X173942785Y-117538051D01*
X174055473Y-117286085D01*
X174078231Y-117211042D01*
X173966523Y-116994000D01*
X172874000Y-116994000D01*
X172566000Y-116994000D01*
X171473477Y-116994000D01*
X171361769Y-117211042D01*
X169208927Y-117211042D01*
X169102983Y-116994000D01*
X167794000Y-116994000D01*
X167486000Y-116994000D01*
X167466000Y-116994000D01*
X167466000Y-116686000D01*
X167486000Y-116686000D01*
X167486000Y-116666000D01*
X167794000Y-116666000D01*
X167794000Y-116686000D01*
X169102983Y-116686000D01*
X169208926Y-116468958D01*
X171361769Y-116468958D01*
X171473477Y-116686000D01*
X172566000Y-116686000D01*
X172566000Y-115592441D01*
X172874000Y-115592441D01*
X172874000Y-116686000D01*
X173966523Y-116686000D01*
X174078231Y-116468958D01*
X174055473Y-116393915D01*
X173942785Y-116141949D01*
X173783106Y-115916808D01*
X173582573Y-115727145D01*
X173348892Y-115580248D01*
X173091043Y-115481763D01*
X172874000Y-115592441D01*
X172566000Y-115592441D01*
X172348957Y-115481763D01*
X172091108Y-115580248D01*
X171857427Y-115727145D01*
X171656894Y-115916808D01*
X171497215Y-116141949D01*
X171384527Y-116393915D01*
X171361769Y-116468958D01*
X169208926Y-116468958D01*
X169213811Y-116458951D01*
X169129417Y-116225388D01*
X168983822Y-115976358D01*
X168792441Y-115760518D01*
X168562629Y-115586162D01*
X168303218Y-115459990D01*
X168121282Y-115412303D01*
X168242181Y-115375802D01*
X168442694Y-115269187D01*
X168618680Y-115125657D01*
X168763436Y-114950677D01*
X168871448Y-114750913D01*
X168938602Y-114533974D01*
X168962340Y-114308123D01*
X168960902Y-114292321D01*
X171614705Y-114292321D01*
X171634162Y-114506119D01*
X171694776Y-114712067D01*
X171794237Y-114902320D01*
X171928758Y-115069630D01*
X172093214Y-115207625D01*
X172281342Y-115311049D01*
X172485975Y-115375962D01*
X172699320Y-115399893D01*
X172714678Y-115400000D01*
X172725322Y-115400000D01*
X172938980Y-115379051D01*
X173144499Y-115317001D01*
X173334053Y-115216213D01*
X173500420Y-115080528D01*
X173637263Y-114915112D01*
X173739371Y-114726267D01*
X173802855Y-114521186D01*
X173825295Y-114307679D01*
X173805838Y-114093881D01*
X173745224Y-113887933D01*
X173645763Y-113697680D01*
X173511242Y-113530370D01*
X173346786Y-113392375D01*
X173158658Y-113288951D01*
X172954025Y-113224038D01*
X172740680Y-113200107D01*
X172725322Y-113200000D01*
X172714678Y-113200000D01*
X172501020Y-113220949D01*
X172295501Y-113282999D01*
X172105947Y-113383787D01*
X171939580Y-113519472D01*
X171802737Y-113684888D01*
X171700629Y-113873733D01*
X171637145Y-114078814D01*
X171614705Y-114292321D01*
X168960902Y-114292321D01*
X168941757Y-114081963D01*
X168877639Y-113864108D01*
X168772427Y-113662855D01*
X168630128Y-113485872D01*
X168456164Y-113339898D01*
X168257159Y-113230494D01*
X168040694Y-113161827D01*
X167815014Y-113136513D01*
X167798768Y-113136400D01*
X167481232Y-113136400D01*
X167255221Y-113158561D01*
X167037819Y-113224198D01*
X166837306Y-113330813D01*
X166661320Y-113474343D01*
X166516564Y-113649323D01*
X166408552Y-113849087D01*
X166341398Y-114066026D01*
X166317660Y-114291877D01*
X166338243Y-114518037D01*
X166402361Y-114735892D01*
X166507573Y-114937145D01*
X166649872Y-115114128D01*
X166823836Y-115260102D01*
X167022841Y-115369506D01*
X167158190Y-115412442D01*
X166976782Y-115459990D01*
X166717371Y-115586162D01*
X166487559Y-115760518D01*
X166296178Y-115976358D01*
X166150583Y-116225388D01*
X166130320Y-116281466D01*
X166130320Y-111751877D01*
X166317660Y-111751877D01*
X166338243Y-111978037D01*
X166402361Y-112195892D01*
X166507573Y-112397145D01*
X166649872Y-112574128D01*
X166823836Y-112720102D01*
X167022841Y-112829506D01*
X167239306Y-112898173D01*
X167464986Y-112923487D01*
X167481232Y-112923600D01*
X167798768Y-112923600D01*
X168024779Y-112901439D01*
X168242181Y-112835802D01*
X168442694Y-112729187D01*
X168618680Y-112585657D01*
X168763436Y-112410677D01*
X168871448Y-112210913D01*
X168938602Y-111993974D01*
X168962340Y-111768123D01*
X168960902Y-111752321D01*
X171614705Y-111752321D01*
X171634162Y-111966119D01*
X171694776Y-112172067D01*
X171794237Y-112362320D01*
X171928758Y-112529630D01*
X172093214Y-112667625D01*
X172281342Y-112771049D01*
X172485975Y-112835962D01*
X172699320Y-112859893D01*
X172714678Y-112860000D01*
X172725322Y-112860000D01*
X172938980Y-112839051D01*
X173144499Y-112777001D01*
X173334053Y-112676213D01*
X173500420Y-112540528D01*
X173637263Y-112375112D01*
X173739371Y-112186267D01*
X173795600Y-112004623D01*
X173795600Y-112106330D01*
X173800558Y-112156892D01*
X173804986Y-112207503D01*
X173805793Y-112210280D01*
X173806075Y-112213159D01*
X173820762Y-112261806D01*
X173834933Y-112310582D01*
X173836264Y-112313149D01*
X173837100Y-112315919D01*
X173860968Y-112360809D01*
X173884332Y-112405882D01*
X173886134Y-112408140D01*
X173887493Y-112410695D01*
X173919635Y-112450105D01*
X173951300Y-112489771D01*
X173955268Y-112493796D01*
X173955336Y-112493879D01*
X173955413Y-112493942D01*
X173956691Y-112495239D01*
X175558541Y-114097089D01*
X175597793Y-114129330D01*
X175636718Y-114161992D01*
X175639255Y-114163387D01*
X175641488Y-114165221D01*
X175686267Y-114189232D01*
X175730782Y-114213704D01*
X175733536Y-114214578D01*
X175736088Y-114215946D01*
X175784717Y-114230813D01*
X175833099Y-114246161D01*
X175835971Y-114246483D01*
X175838738Y-114247329D01*
X175889325Y-114252468D01*
X175939771Y-114258126D01*
X175945419Y-114258166D01*
X175945530Y-114258177D01*
X175945633Y-114258167D01*
X175947450Y-114258180D01*
X176145999Y-114258180D01*
X176145999Y-114957860D01*
X176149809Y-115005634D01*
X176174902Y-115086663D01*
X176221576Y-115157494D01*
X176286135Y-115212517D01*
X176363468Y-115247376D01*
X176447450Y-115259311D01*
X178248310Y-115259311D01*
X178296084Y-115255501D01*
X178377113Y-115230408D01*
X178447944Y-115183734D01*
X178502967Y-115119175D01*
X178537826Y-115041842D01*
X178549761Y-114957860D01*
X178549761Y-114292321D01*
X179234705Y-114292321D01*
X179254162Y-114506119D01*
X179314776Y-114712067D01*
X179414237Y-114902320D01*
X179548758Y-115069630D01*
X179713214Y-115207625D01*
X179901342Y-115311049D01*
X180105975Y-115375962D01*
X180319320Y-115399893D01*
X180334678Y-115400000D01*
X180345322Y-115400000D01*
X180558980Y-115379051D01*
X180764499Y-115317001D01*
X180954053Y-115216213D01*
X181120420Y-115080528D01*
X181257263Y-114915112D01*
X181359371Y-114726267D01*
X181422855Y-114521186D01*
X181445295Y-114307679D01*
X181425838Y-114093881D01*
X181365224Y-113887933D01*
X181265763Y-113697680D01*
X181131242Y-113530370D01*
X180966786Y-113392375D01*
X180778658Y-113288951D01*
X180574025Y-113224038D01*
X180360680Y-113200107D01*
X180345322Y-113200000D01*
X180334678Y-113200000D01*
X180121020Y-113220949D01*
X179915501Y-113282999D01*
X179725947Y-113383787D01*
X179559580Y-113519472D01*
X179422737Y-113684888D01*
X179320629Y-113873733D01*
X179257145Y-114078814D01*
X179234705Y-114292321D01*
X178549761Y-114292321D01*
X178549761Y-112458500D01*
X178545951Y-112410726D01*
X178520858Y-112329697D01*
X178474184Y-112258866D01*
X178409625Y-112203843D01*
X178399202Y-112199145D01*
X178399202Y-112183622D01*
X178551200Y-112335620D01*
X178930083Y-112335620D01*
X179047547Y-112312255D01*
X179158196Y-112266423D01*
X179257777Y-112199885D01*
X179308140Y-112149522D01*
X179314776Y-112172067D01*
X179414237Y-112362320D01*
X179548758Y-112529630D01*
X179713214Y-112667625D01*
X179901342Y-112771049D01*
X180105975Y-112835962D01*
X180319320Y-112859893D01*
X180334678Y-112860000D01*
X180345322Y-112860000D01*
X180558980Y-112839051D01*
X180764499Y-112777001D01*
X180954053Y-112676213D01*
X181120420Y-112540528D01*
X181257263Y-112375112D01*
X181359371Y-112186267D01*
X181422855Y-111981186D01*
X181445295Y-111767679D01*
X181425838Y-111553881D01*
X181365224Y-111347933D01*
X181265763Y-111157680D01*
X181131242Y-110990370D01*
X180966786Y-110852375D01*
X180778658Y-110748951D01*
X180574025Y-110684038D01*
X180360680Y-110660107D01*
X180345322Y-110660000D01*
X180334678Y-110660000D01*
X180121020Y-110680949D01*
X179915501Y-110742999D01*
X179725947Y-110843787D01*
X179559580Y-110979472D01*
X179478200Y-111077844D01*
X179478200Y-111073618D01*
X179326202Y-111073618D01*
X179478200Y-110921620D01*
X179478200Y-110667737D01*
X179454835Y-110550273D01*
X179409003Y-110439624D01*
X179342464Y-110340042D01*
X179257777Y-110255355D01*
X179158196Y-110188817D01*
X179047547Y-110142985D01*
X178930083Y-110119620D01*
X178551200Y-110119620D01*
X178399200Y-110271620D01*
X178399200Y-111073620D01*
X178419200Y-111073620D01*
X178419200Y-111381620D01*
X178399200Y-111381620D01*
X178399200Y-111401620D01*
X178091200Y-111401620D01*
X178091200Y-111381620D01*
X176299200Y-111381620D01*
X176299200Y-112183620D01*
X176308330Y-112192750D01*
X176247816Y-112232626D01*
X176192793Y-112297185D01*
X176157934Y-112374518D01*
X176145999Y-112458500D01*
X176145999Y-113128911D01*
X175319790Y-112302702D01*
X175342853Y-112312255D01*
X175460317Y-112335620D01*
X175839200Y-112335620D01*
X175991200Y-112183620D01*
X175991200Y-111381620D01*
X175064200Y-111381620D01*
X174912200Y-111533620D01*
X174912200Y-111787503D01*
X174935565Y-111904967D01*
X174945118Y-111928030D01*
X174895600Y-111878512D01*
X174895600Y-111181282D01*
X174907303Y-111164692D01*
X174958584Y-111049513D01*
X174973674Y-110983094D01*
X175064200Y-111073620D01*
X175991200Y-111073620D01*
X175991200Y-110271620D01*
X176299200Y-110271620D01*
X176299200Y-111073620D01*
X178091200Y-111073620D01*
X178091200Y-110271620D01*
X177939200Y-110119620D01*
X177560317Y-110119620D01*
X177442853Y-110142985D01*
X177332204Y-110188817D01*
X177232623Y-110255355D01*
X177195200Y-110292778D01*
X177157777Y-110255355D01*
X177058196Y-110188817D01*
X176947547Y-110142985D01*
X176830083Y-110119620D01*
X176451200Y-110119620D01*
X176299200Y-110271620D01*
X175991200Y-110271620D01*
X175839200Y-110119620D01*
X175460317Y-110119620D01*
X175342853Y-110142985D01*
X175232204Y-110188817D01*
X175132623Y-110255355D01*
X175047936Y-110340042D01*
X174981397Y-110439624D01*
X174935565Y-110550273D01*
X174930262Y-110576933D01*
X174915994Y-110542316D01*
X174846223Y-110437302D01*
X174757383Y-110347840D01*
X174652858Y-110277337D01*
X174536631Y-110228480D01*
X174413127Y-110203128D01*
X174287050Y-110202248D01*
X174163204Y-110225873D01*
X174046306Y-110273103D01*
X173940807Y-110342139D01*
X173850727Y-110430352D01*
X173779496Y-110534382D01*
X173729828Y-110650266D01*
X173703615Y-110773590D01*
X173701855Y-110899657D01*
X173724614Y-111023665D01*
X173771027Y-111140890D01*
X173795600Y-111179020D01*
X173795600Y-111519095D01*
X173745224Y-111347933D01*
X173645763Y-111157680D01*
X173511242Y-110990370D01*
X173346786Y-110852375D01*
X173158658Y-110748951D01*
X172954025Y-110684038D01*
X172740680Y-110660107D01*
X172725322Y-110660000D01*
X172714678Y-110660000D01*
X172501020Y-110680949D01*
X172295501Y-110742999D01*
X172105947Y-110843787D01*
X171939580Y-110979472D01*
X171802737Y-111144888D01*
X171700629Y-111333733D01*
X171637145Y-111538814D01*
X171614705Y-111752321D01*
X168960902Y-111752321D01*
X168941757Y-111541963D01*
X168877639Y-111324108D01*
X168772427Y-111122855D01*
X168630128Y-110945872D01*
X168456164Y-110799898D01*
X168257159Y-110690494D01*
X168040694Y-110621827D01*
X167815014Y-110596513D01*
X167798768Y-110596400D01*
X167481232Y-110596400D01*
X167255221Y-110618561D01*
X167037819Y-110684198D01*
X166837306Y-110790813D01*
X166661320Y-110934343D01*
X166516564Y-111109323D01*
X166408552Y-111309087D01*
X166341398Y-111526026D01*
X166317660Y-111751877D01*
X166130320Y-111751877D01*
X166130320Y-109211877D01*
X166317660Y-109211877D01*
X166338243Y-109438037D01*
X166402361Y-109655892D01*
X166507573Y-109857145D01*
X166649872Y-110034128D01*
X166823836Y-110180102D01*
X167022841Y-110289506D01*
X167239306Y-110358173D01*
X167464986Y-110383487D01*
X167481232Y-110383600D01*
X167798768Y-110383600D01*
X168024779Y-110361439D01*
X168242181Y-110295802D01*
X168442694Y-110189187D01*
X168618680Y-110045657D01*
X168763436Y-109870677D01*
X168871448Y-109670913D01*
X168938602Y-109453974D01*
X168962340Y-109228123D01*
X168941757Y-109001963D01*
X168877639Y-108784108D01*
X168772427Y-108582855D01*
X168630128Y-108405872D01*
X168456164Y-108259898D01*
X168257159Y-108150494D01*
X168040694Y-108081827D01*
X167815014Y-108056513D01*
X167798768Y-108056400D01*
X167481232Y-108056400D01*
X167255221Y-108078561D01*
X167037819Y-108144198D01*
X166837306Y-108250813D01*
X166661320Y-108394343D01*
X166516564Y-108569323D01*
X166408552Y-108769087D01*
X166341398Y-108986026D01*
X166317660Y-109211877D01*
X166130320Y-109211877D01*
X166130320Y-104282160D01*
X171347569Y-104282160D01*
X171347569Y-105182160D01*
X171351379Y-105229934D01*
X171376472Y-105310963D01*
X171423146Y-105381794D01*
X171487705Y-105436817D01*
X171565038Y-105471676D01*
X171649020Y-105483611D01*
X172093348Y-105483611D01*
X172021927Y-105553552D01*
X171950696Y-105657582D01*
X171901028Y-105773466D01*
X171874815Y-105896790D01*
X171873055Y-106022857D01*
X171895814Y-106146865D01*
X171942227Y-106264090D01*
X172010525Y-106370068D01*
X172098107Y-106460762D01*
X172201637Y-106532717D01*
X172317172Y-106583193D01*
X172440310Y-106610267D01*
X172566361Y-106612907D01*
X172690525Y-106591014D01*
X172808072Y-106545420D01*
X172914524Y-106477864D01*
X173005827Y-106390917D01*
X173078503Y-106287892D01*
X173129784Y-106172713D01*
X173157717Y-106049767D01*
X173159728Y-105905760D01*
X173135239Y-105782082D01*
X173087194Y-105665516D01*
X173017423Y-105560502D01*
X172941067Y-105483611D01*
X173349020Y-105483611D01*
X173396794Y-105479801D01*
X173477823Y-105454708D01*
X173548654Y-105408034D01*
X173603677Y-105343475D01*
X173638536Y-105266142D01*
X173650471Y-105182160D01*
X173650471Y-104282160D01*
X173646661Y-104234386D01*
X173621568Y-104153357D01*
X173574894Y-104082526D01*
X173510335Y-104027503D01*
X173433002Y-103992644D01*
X173349020Y-103980709D01*
X171649020Y-103980709D01*
X171601246Y-103984519D01*
X171520217Y-104009612D01*
X171449386Y-104056286D01*
X171394363Y-104120845D01*
X171359504Y-104198178D01*
X171347569Y-104282160D01*
X166130320Y-104282160D01*
X166130320Y-102641450D01*
X166218583Y-102641450D01*
X166320234Y-102911433D01*
X166472603Y-103156397D01*
X166669835Y-103366929D01*
X166904350Y-103534937D01*
X167167135Y-103653965D01*
X167258951Y-103681811D01*
X167486000Y-103570983D01*
X167486000Y-102414400D01*
X166328474Y-102414400D01*
X166218583Y-102641450D01*
X166130320Y-102641450D01*
X166130320Y-101879350D01*
X166218583Y-101879350D01*
X166328474Y-102106400D01*
X167486000Y-102106400D01*
X167486000Y-102086400D01*
X167794000Y-102086400D01*
X167794000Y-102106400D01*
X167814000Y-102106400D01*
X167814000Y-102414400D01*
X167794000Y-102414400D01*
X167794000Y-103570983D01*
X168021049Y-103681811D01*
X168112865Y-103653965D01*
X168375650Y-103534937D01*
X168610165Y-103366929D01*
X168807397Y-103156397D01*
X168959766Y-102911433D01*
X169061417Y-102641450D01*
X168951527Y-102414402D01*
X169030948Y-102414402D01*
X169038561Y-102492041D01*
X169104198Y-102709443D01*
X169210813Y-102909956D01*
X169354343Y-103085942D01*
X169529323Y-103230698D01*
X169729087Y-103338710D01*
X169946026Y-103405864D01*
X170171877Y-103429602D01*
X170398037Y-103409019D01*
X170615892Y-103344901D01*
X170817145Y-103239689D01*
X170994128Y-103097390D01*
X171140102Y-102923426D01*
X171249506Y-102724421D01*
X171318173Y-102507956D01*
X171343487Y-102282276D01*
X171343600Y-102266030D01*
X171343600Y-102254770D01*
X171321439Y-102028759D01*
X171255802Y-101811357D01*
X171149187Y-101610844D01*
X171005657Y-101434858D01*
X170830677Y-101290102D01*
X170630913Y-101182090D01*
X170413974Y-101114936D01*
X170188123Y-101091198D01*
X169961963Y-101111781D01*
X169744108Y-101175899D01*
X169542855Y-101281111D01*
X169365872Y-101423410D01*
X169219898Y-101597374D01*
X169110494Y-101796379D01*
X169041827Y-102012844D01*
X169031333Y-102106398D01*
X168951527Y-102106398D01*
X169061417Y-101879350D01*
X168959766Y-101609367D01*
X168807397Y-101364403D01*
X168610165Y-101153871D01*
X168375650Y-100985863D01*
X168112865Y-100866835D01*
X168021049Y-100838989D01*
X167794002Y-100949816D01*
X167794002Y-100874847D01*
X167858037Y-100869019D01*
X168075892Y-100804901D01*
X168277145Y-100699689D01*
X168454128Y-100557390D01*
X168600102Y-100383426D01*
X168709506Y-100184421D01*
X168778173Y-99967956D01*
X168803487Y-99742276D01*
X168803600Y-99726030D01*
X168803600Y-99714770D01*
X169016400Y-99714770D01*
X169016400Y-99726030D01*
X169038561Y-99952041D01*
X169104198Y-100169443D01*
X169210813Y-100369956D01*
X169354343Y-100545942D01*
X169529323Y-100690698D01*
X169729087Y-100798710D01*
X169946026Y-100865864D01*
X170171877Y-100889602D01*
X170398037Y-100869019D01*
X170615892Y-100804901D01*
X170817145Y-100699689D01*
X170994128Y-100557390D01*
X171140102Y-100383426D01*
X171249506Y-100184421D01*
X171318173Y-99967956D01*
X171343487Y-99742276D01*
X171343600Y-99726030D01*
X171343600Y-99714770D01*
X171321439Y-99488759D01*
X171255802Y-99271357D01*
X171149187Y-99070844D01*
X171005657Y-98894858D01*
X170959653Y-98856800D01*
X171554949Y-98856800D01*
X171554949Y-100584000D01*
X171558759Y-100631774D01*
X171583852Y-100712803D01*
X171630526Y-100783634D01*
X171695085Y-100838657D01*
X171772418Y-100873516D01*
X171856400Y-100885451D01*
X173583600Y-100885451D01*
X173631374Y-100881641D01*
X173712403Y-100856548D01*
X173783234Y-100809874D01*
X173838257Y-100745315D01*
X173873116Y-100667982D01*
X173885051Y-100584000D01*
X173885051Y-98856800D01*
X173881241Y-98809026D01*
X173856148Y-98727997D01*
X173809474Y-98657166D01*
X173744915Y-98602143D01*
X173667582Y-98567284D01*
X173583600Y-98555349D01*
X171856400Y-98555349D01*
X171808626Y-98559159D01*
X171727597Y-98584252D01*
X171656766Y-98630926D01*
X171601743Y-98695485D01*
X171566884Y-98772818D01*
X171554949Y-98856800D01*
X170959653Y-98856800D01*
X170830677Y-98750102D01*
X170630913Y-98642090D01*
X170413974Y-98574936D01*
X170188123Y-98551198D01*
X169961963Y-98571781D01*
X169744108Y-98635899D01*
X169542855Y-98741111D01*
X169365872Y-98883410D01*
X169219898Y-99057374D01*
X169110494Y-99256379D01*
X169041827Y-99472844D01*
X169016513Y-99698524D01*
X169016400Y-99714770D01*
X168803600Y-99714770D01*
X168781439Y-99488759D01*
X168715802Y-99271357D01*
X168609187Y-99070844D01*
X168465657Y-98894858D01*
X168290677Y-98750102D01*
X168090913Y-98642090D01*
X167873974Y-98574936D01*
X167648123Y-98551198D01*
X167421963Y-98571781D01*
X167204108Y-98635899D01*
X167002855Y-98741111D01*
X166825872Y-98883410D01*
X166679898Y-99057374D01*
X166570494Y-99256379D01*
X166501827Y-99472844D01*
X166476513Y-99698524D01*
X166476400Y-99714770D01*
X166476400Y-99726030D01*
X166498561Y-99952041D01*
X166564198Y-100169443D01*
X166670813Y-100369956D01*
X166814343Y-100545942D01*
X166989323Y-100690698D01*
X167189087Y-100798710D01*
X167406026Y-100865864D01*
X167485998Y-100874269D01*
X167485998Y-100949816D01*
X167258951Y-100838989D01*
X167167135Y-100866835D01*
X166904350Y-100985863D01*
X166669835Y-101153871D01*
X166472603Y-101364403D01*
X166320234Y-101609367D01*
X166218583Y-101879350D01*
X166130320Y-101879350D01*
X166130320Y-98887839D01*
X166144437Y-98743865D01*
X166180923Y-98623016D01*
X166240188Y-98511554D01*
X166319973Y-98413728D01*
X166417244Y-98333259D01*
X166528284Y-98273220D01*
X166648879Y-98235890D01*
X166791677Y-98220881D01*
X175700898Y-98220881D01*
X175695366Y-98224526D01*
X175695366Y-98224526D01*
G37*
X175695366Y-98224526D02*
X175640343Y-98289085D01*
X175605484Y-98366418D01*
X175593549Y-98450400D01*
X175593549Y-100482400D01*
X175597359Y-100530174D01*
X175622452Y-100611203D01*
X175669126Y-100682034D01*
X175733685Y-100737057D01*
X175811018Y-100771916D01*
X175895000Y-100783851D01*
X177144531Y-100783851D01*
X176217982Y-101710400D01*
X173742122Y-101710400D01*
X173689187Y-101610844D01*
X173545657Y-101434858D01*
X173370677Y-101290102D01*
X173170913Y-101182090D01*
X172953974Y-101114936D01*
X172728123Y-101091198D01*
X172501963Y-101111781D01*
X172284108Y-101175899D01*
X172082855Y-101281111D01*
X171905872Y-101423410D01*
X171759898Y-101597374D01*
X171650494Y-101796379D01*
X171581827Y-102012844D01*
X171556513Y-102238524D01*
X171556400Y-102254770D01*
X171556400Y-102266030D01*
X171578561Y-102492041D01*
X171644198Y-102709443D01*
X171750813Y-102909956D01*
X171894343Y-103085942D01*
X172069323Y-103230698D01*
X172269087Y-103338710D01*
X172486026Y-103405864D01*
X172711877Y-103429602D01*
X172938037Y-103409019D01*
X173155892Y-103344901D01*
X173357145Y-103239689D01*
X173534128Y-103097390D01*
X173680102Y-102923426D01*
X173742239Y-102810400D01*
X176445800Y-102810400D01*
X176496362Y-102805442D01*
X176546973Y-102801014D01*
X176549750Y-102800207D01*
X176552629Y-102799925D01*
X176601276Y-102785238D01*
X176650052Y-102771067D01*
X176652619Y-102769736D01*
X176655389Y-102768900D01*
X176700279Y-102745032D01*
X176745352Y-102721668D01*
X176747610Y-102719866D01*
X176750165Y-102718507D01*
X176789575Y-102686365D01*
X176829241Y-102654700D01*
X176833266Y-102650732D01*
X176833349Y-102650664D01*
X176833412Y-102650587D01*
X176834709Y-102649309D01*
X178112709Y-101371309D01*
X178144950Y-101332057D01*
X178177612Y-101293132D01*
X178179007Y-101290595D01*
X178180841Y-101288362D01*
X178204852Y-101243583D01*
X178229324Y-101199068D01*
X178230198Y-101196314D01*
X178231566Y-101193762D01*
X178246433Y-101145133D01*
X178261781Y-101096751D01*
X178262103Y-101093879D01*
X178262949Y-101091112D01*
X178268088Y-101040525D01*
X178273746Y-100990079D01*
X178273786Y-100984431D01*
X178273797Y-100984320D01*
X178273787Y-100984217D01*
X178273800Y-100982400D01*
X178273800Y-100783851D01*
X179552600Y-100783851D01*
X179600374Y-100780041D01*
X179681403Y-100754948D01*
X179752234Y-100708274D01*
X179807257Y-100643715D01*
X179842116Y-100566382D01*
X179854051Y-100482400D01*
X179854051Y-100016400D01*
X181425182Y-100016400D01*
X180543982Y-100897600D01*
X178816000Y-100897600D01*
X178765438Y-100902558D01*
X178714827Y-100906986D01*
X178712050Y-100907793D01*
X178709171Y-100908075D01*
X178660524Y-100922762D01*
X178611748Y-100936933D01*
X178609181Y-100938264D01*
X178606411Y-100939100D01*
X178561521Y-100962968D01*
X178516448Y-100986332D01*
X178514190Y-100988134D01*
X178511635Y-100989493D01*
X178472225Y-101021635D01*
X178432559Y-101053300D01*
X178428534Y-101057268D01*
X178428451Y-101057336D01*
X178428388Y-101057413D01*
X178427091Y-101058691D01*
X175048891Y-104436891D01*
X175016650Y-104476143D01*
X174983988Y-104515068D01*
X174982593Y-104517605D01*
X174980759Y-104519838D01*
X174956748Y-104564617D01*
X174932276Y-104609132D01*
X174931402Y-104611886D01*
X174930034Y-104614438D01*
X174915167Y-104663067D01*
X174899819Y-104711449D01*
X174899497Y-104714321D01*
X174898651Y-104717088D01*
X174894724Y-104755746D01*
X174882026Y-104756759D01*
X174800997Y-104781852D01*
X174730166Y-104828526D01*
X174675143Y-104893085D01*
X174640284Y-104970418D01*
X174628349Y-105054400D01*
X174628349Y-105923634D01*
X174536631Y-105885080D01*
X174413127Y-105859728D01*
X174287050Y-105858848D01*
X174163204Y-105882473D01*
X174046306Y-105929703D01*
X173940807Y-105998739D01*
X173850727Y-106086952D01*
X173779496Y-106190982D01*
X173729828Y-106306866D01*
X173703615Y-106430190D01*
X173701855Y-106556257D01*
X173724614Y-106680265D01*
X173771027Y-106797490D01*
X173839325Y-106903468D01*
X173926907Y-106994162D01*
X174030437Y-107066117D01*
X174067158Y-107082160D01*
X173630488Y-107082160D01*
X173621568Y-107053357D01*
X173574894Y-106982526D01*
X173510335Y-106927503D01*
X173433002Y-106892644D01*
X173349020Y-106880709D01*
X171649020Y-106880709D01*
X171601246Y-106884519D01*
X171520217Y-106909612D01*
X171449386Y-106956286D01*
X171394363Y-107020845D01*
X171366724Y-107082160D01*
X170863940Y-107082160D01*
X170813378Y-107087118D01*
X170762767Y-107091546D01*
X170759990Y-107092353D01*
X170757111Y-107092635D01*
X170708464Y-107107322D01*
X170659688Y-107121493D01*
X170657121Y-107122824D01*
X170654351Y-107123660D01*
X170609461Y-107147528D01*
X170564388Y-107170892D01*
X170562130Y-107172694D01*
X170559575Y-107174053D01*
X170520165Y-107206195D01*
X170480499Y-107237860D01*
X170476478Y-107241825D01*
X170476391Y-107241896D01*
X170476324Y-107241977D01*
X170475031Y-107243252D01*
X170394934Y-107323349D01*
X169571300Y-107323349D01*
X169523526Y-107327159D01*
X169442497Y-107352252D01*
X169371666Y-107398926D01*
X169316643Y-107463485D01*
X169281784Y-107540818D01*
X169269849Y-107624800D01*
X169269849Y-108524800D01*
X169273659Y-108572574D01*
X169298752Y-108653603D01*
X169345426Y-108724434D01*
X169409985Y-108779457D01*
X169487318Y-108814316D01*
X169571300Y-108826251D01*
X171271300Y-108826251D01*
X171319074Y-108822441D01*
X171400103Y-108797348D01*
X171470934Y-108750674D01*
X171525957Y-108686115D01*
X171560816Y-108608782D01*
X171572751Y-108524800D01*
X171572751Y-108372772D01*
X171649020Y-108383611D01*
X172008073Y-108383611D01*
X171939580Y-108439472D01*
X171802737Y-108604888D01*
X171700629Y-108793733D01*
X171637145Y-108998814D01*
X171614705Y-109212321D01*
X171634162Y-109426119D01*
X171694776Y-109632067D01*
X171698936Y-109640024D01*
X171115611Y-110223349D01*
X169571300Y-110223349D01*
X169523526Y-110227159D01*
X169442497Y-110252252D01*
X169371666Y-110298926D01*
X169316643Y-110363485D01*
X169281784Y-110440818D01*
X169269849Y-110524800D01*
X169269849Y-111424800D01*
X169273659Y-111472574D01*
X169298752Y-111553603D01*
X169345426Y-111624434D01*
X169409985Y-111679457D01*
X169487318Y-111714316D01*
X169571300Y-111726251D01*
X171271300Y-111726251D01*
X171319074Y-111722441D01*
X171400103Y-111697348D01*
X171470934Y-111650674D01*
X171525957Y-111586115D01*
X171560816Y-111508782D01*
X171572751Y-111424800D01*
X171572751Y-110968289D01*
X172303092Y-110237948D01*
X172485975Y-110295962D01*
X172699320Y-110319893D01*
X172714678Y-110320000D01*
X172725322Y-110320000D01*
X172938980Y-110299051D01*
X173144499Y-110237001D01*
X173334053Y-110136213D01*
X173500420Y-110000528D01*
X173637263Y-109835112D01*
X173739371Y-109646267D01*
X173802855Y-109441186D01*
X173825295Y-109227679D01*
X173805838Y-109013881D01*
X173745224Y-108807933D01*
X173645763Y-108617680D01*
X173511242Y-108450370D01*
X173418960Y-108372937D01*
X173477823Y-108354708D01*
X173548654Y-108308034D01*
X173603677Y-108243475D01*
X173631316Y-108182160D01*
X174321922Y-108182160D01*
X175218749Y-109078987D01*
X175218749Y-109727620D01*
X175222559Y-109775394D01*
X175247652Y-109856423D01*
X175294326Y-109927254D01*
X175358885Y-109982277D01*
X175436218Y-110017136D01*
X175520200Y-110029071D01*
X176770200Y-110029071D01*
X176817974Y-110025261D01*
X176899003Y-110000168D01*
X176969834Y-109953494D01*
X177024857Y-109888935D01*
X177059716Y-109811602D01*
X177064545Y-109777620D01*
X177323248Y-109777620D01*
X177347652Y-109856423D01*
X177394326Y-109927254D01*
X177458885Y-109982277D01*
X177536218Y-110017136D01*
X177620200Y-110029071D01*
X178870200Y-110029071D01*
X178917974Y-110025261D01*
X178999003Y-110000168D01*
X179069834Y-109953494D01*
X179124857Y-109888935D01*
X179159716Y-109811602D01*
X179165628Y-109770000D01*
X179386885Y-109770000D01*
X179414237Y-109822320D01*
X179548758Y-109989630D01*
X179713214Y-110127625D01*
X179901342Y-110231049D01*
X180105975Y-110295962D01*
X180319320Y-110319893D01*
X180334678Y-110320000D01*
X180345322Y-110320000D01*
X180558980Y-110299051D01*
X180764499Y-110237001D01*
X180954053Y-110136213D01*
X181120420Y-110000528D01*
X181257263Y-109835112D01*
X181292469Y-109770000D01*
X181449344Y-109770000D01*
X181452652Y-109780683D01*
X181499326Y-109851514D01*
X181563885Y-109906537D01*
X181641218Y-109941396D01*
X181725200Y-109953331D01*
X182025200Y-109953331D01*
X182025200Y-117526582D01*
X181331382Y-118220400D01*
X179602618Y-118220400D01*
X178699449Y-117317231D01*
X178660197Y-117284990D01*
X178621272Y-117252328D01*
X178618735Y-117250933D01*
X178616502Y-117249099D01*
X178571723Y-117225088D01*
X178549761Y-117213015D01*
X178549761Y-116832321D01*
X179234705Y-116832321D01*
X179254162Y-117046119D01*
X179314776Y-117252067D01*
X179414237Y-117442320D01*
X179548758Y-117609630D01*
X179713214Y-117747625D01*
X179901342Y-117851049D01*
X180105975Y-117915962D01*
X180319320Y-117939893D01*
X180334678Y-117940000D01*
X180345322Y-117940000D01*
X180558980Y-117919051D01*
X180764499Y-117857001D01*
X180954053Y-117756213D01*
X181120420Y-117620528D01*
X181257263Y-117455112D01*
X181359371Y-117266267D01*
X181422855Y-117061186D01*
X181445295Y-116847679D01*
X181425838Y-116633881D01*
X181365224Y-116427933D01*
X181265763Y-116237680D01*
X181131242Y-116070370D01*
X180966786Y-115932375D01*
X180778658Y-115828951D01*
X180574025Y-115764038D01*
X180360680Y-115740107D01*
X180345322Y-115740000D01*
X180334678Y-115740000D01*
X180121020Y-115760949D01*
X179915501Y-115822999D01*
X179725947Y-115923787D01*
X179559580Y-116059472D01*
X179422737Y-116224888D01*
X179320629Y-116413733D01*
X179257145Y-116618814D01*
X179234705Y-116832321D01*
X178549761Y-116832321D01*
X178549761Y-116456460D01*
X178545951Y-116408686D01*
X178520858Y-116327657D01*
X178474184Y-116256826D01*
X178409625Y-116201803D01*
X178332292Y-116166944D01*
X178248310Y-116155009D01*
X176447450Y-116155009D01*
X176399676Y-116158819D01*
X176318647Y-116183912D01*
X176247816Y-116230586D01*
X176192793Y-116295145D01*
X176157934Y-116372478D01*
X176145999Y-116456460D01*
X176145999Y-118955820D01*
X176149809Y-119003594D01*
X176165976Y-119055800D01*
X166797278Y-119055800D01*
X166653306Y-119041683D01*
X166532456Y-119005197D01*
X166420992Y-118945931D01*
X166323167Y-118866146D01*
X166242702Y-118768880D01*
X166182660Y-118657836D01*
X166145330Y-118537241D01*
X166130320Y-118394433D01*
X166130320Y-117398534D01*
X166150583Y-117454612D01*
X166296178Y-117703642D01*
X166487559Y-117919482D01*
X166717371Y-118093838D01*
X166976782Y-118220010D01*
X167255824Y-118293149D01*
X167486000Y-118159516D01*
X167486000Y-116994000D01*
X167794000Y-116994000D01*
X167794000Y-118159516D01*
X168024176Y-118293149D01*
X168303218Y-118220010D01*
X168562629Y-118093838D01*
X168792441Y-117919482D01*
X168983822Y-117703642D01*
X169129417Y-117454612D01*
X169213811Y-117221049D01*
X169208927Y-117211042D01*
X171361769Y-117211042D01*
X171384527Y-117286085D01*
X171497215Y-117538051D01*
X171656894Y-117763192D01*
X171857427Y-117952855D01*
X172091108Y-118099752D01*
X172348957Y-118198237D01*
X172566000Y-118087559D01*
X172566000Y-116994000D01*
X172874000Y-116994000D01*
X172874000Y-118087559D01*
X173091043Y-118198237D01*
X173348892Y-118099752D01*
X173582573Y-117952855D01*
X173783106Y-117763192D01*
X173942785Y-117538051D01*
X174055473Y-117286085D01*
X174078231Y-117211042D01*
X173966523Y-116994000D01*
X172874000Y-116994000D01*
X172566000Y-116994000D01*
X171473477Y-116994000D01*
X171361769Y-117211042D01*
X169208927Y-117211042D01*
X169102983Y-116994000D01*
X167794000Y-116994000D01*
X167486000Y-116994000D01*
X167466000Y-116994000D01*
X167466000Y-116686000D01*
X167486000Y-116686000D01*
X167486000Y-116666000D01*
X167794000Y-116666000D01*
X167794000Y-116686000D01*
X169102983Y-116686000D01*
X169208926Y-116468958D01*
X171361769Y-116468958D01*
X171473477Y-116686000D01*
X172566000Y-116686000D01*
X172566000Y-115592441D01*
X172874000Y-115592441D01*
X172874000Y-116686000D01*
X173966523Y-116686000D01*
X174078231Y-116468958D01*
X174055473Y-116393915D01*
X173942785Y-116141949D01*
X173783106Y-115916808D01*
X173582573Y-115727145D01*
X173348892Y-115580248D01*
X173091043Y-115481763D01*
X172874000Y-115592441D01*
X172566000Y-115592441D01*
X172348957Y-115481763D01*
X172091108Y-115580248D01*
X171857427Y-115727145D01*
X171656894Y-115916808D01*
X171497215Y-116141949D01*
X171384527Y-116393915D01*
X171361769Y-116468958D01*
X169208926Y-116468958D01*
X169213811Y-116458951D01*
X169129417Y-116225388D01*
X168983822Y-115976358D01*
X168792441Y-115760518D01*
X168562629Y-115586162D01*
X168303218Y-115459990D01*
X168121282Y-115412303D01*
X168242181Y-115375802D01*
X168442694Y-115269187D01*
X168618680Y-115125657D01*
X168763436Y-114950677D01*
X168871448Y-114750913D01*
X168938602Y-114533974D01*
X168962340Y-114308123D01*
X168960902Y-114292321D01*
X171614705Y-114292321D01*
X171634162Y-114506119D01*
X171694776Y-114712067D01*
X171794237Y-114902320D01*
X171928758Y-115069630D01*
X172093214Y-115207625D01*
X172281342Y-115311049D01*
X172485975Y-115375962D01*
X172699320Y-115399893D01*
X172714678Y-115400000D01*
X172725322Y-115400000D01*
X172938980Y-115379051D01*
X173144499Y-115317001D01*
X173334053Y-115216213D01*
X173500420Y-115080528D01*
X173637263Y-114915112D01*
X173739371Y-114726267D01*
X173802855Y-114521186D01*
X173825295Y-114307679D01*
X173805838Y-114093881D01*
X173745224Y-113887933D01*
X173645763Y-113697680D01*
X173511242Y-113530370D01*
X173346786Y-113392375D01*
X173158658Y-113288951D01*
X172954025Y-113224038D01*
X172740680Y-113200107D01*
X172725322Y-113200000D01*
X172714678Y-113200000D01*
X172501020Y-113220949D01*
X172295501Y-113282999D01*
X172105947Y-113383787D01*
X171939580Y-113519472D01*
X171802737Y-113684888D01*
X171700629Y-113873733D01*
X171637145Y-114078814D01*
X171614705Y-114292321D01*
X168960902Y-114292321D01*
X168941757Y-114081963D01*
X168877639Y-113864108D01*
X168772427Y-113662855D01*
X168630128Y-113485872D01*
X168456164Y-113339898D01*
X168257159Y-113230494D01*
X168040694Y-113161827D01*
X167815014Y-113136513D01*
X167798768Y-113136400D01*
X167481232Y-113136400D01*
X167255221Y-113158561D01*
X167037819Y-113224198D01*
X166837306Y-113330813D01*
X166661320Y-113474343D01*
X166516564Y-113649323D01*
X166408552Y-113849087D01*
X166341398Y-114066026D01*
X166317660Y-114291877D01*
X166338243Y-114518037D01*
X166402361Y-114735892D01*
X166507573Y-114937145D01*
X166649872Y-115114128D01*
X166823836Y-115260102D01*
X167022841Y-115369506D01*
X167158190Y-115412442D01*
X166976782Y-115459990D01*
X166717371Y-115586162D01*
X166487559Y-115760518D01*
X166296178Y-115976358D01*
X166150583Y-116225388D01*
X166130320Y-116281466D01*
X166130320Y-111751877D01*
X166317660Y-111751877D01*
X166338243Y-111978037D01*
X166402361Y-112195892D01*
X166507573Y-112397145D01*
X166649872Y-112574128D01*
X166823836Y-112720102D01*
X167022841Y-112829506D01*
X167239306Y-112898173D01*
X167464986Y-112923487D01*
X167481232Y-112923600D01*
X167798768Y-112923600D01*
X168024779Y-112901439D01*
X168242181Y-112835802D01*
X168442694Y-112729187D01*
X168618680Y-112585657D01*
X168763436Y-112410677D01*
X168871448Y-112210913D01*
X168938602Y-111993974D01*
X168962340Y-111768123D01*
X168960902Y-111752321D01*
X171614705Y-111752321D01*
X171634162Y-111966119D01*
X171694776Y-112172067D01*
X171794237Y-112362320D01*
X171928758Y-112529630D01*
X172093214Y-112667625D01*
X172281342Y-112771049D01*
X172485975Y-112835962D01*
X172699320Y-112859893D01*
X172714678Y-112860000D01*
X172725322Y-112860000D01*
X172938980Y-112839051D01*
X173144499Y-112777001D01*
X173334053Y-112676213D01*
X173500420Y-112540528D01*
X173637263Y-112375112D01*
X173739371Y-112186267D01*
X173795600Y-112004623D01*
X173795600Y-112106330D01*
X173800558Y-112156892D01*
X173804986Y-112207503D01*
X173805793Y-112210280D01*
X173806075Y-112213159D01*
X173820762Y-112261806D01*
X173834933Y-112310582D01*
X173836264Y-112313149D01*
X173837100Y-112315919D01*
X173860968Y-112360809D01*
X173884332Y-112405882D01*
X173886134Y-112408140D01*
X173887493Y-112410695D01*
X173919635Y-112450105D01*
X173951300Y-112489771D01*
X173955268Y-112493796D01*
X173955336Y-112493879D01*
X173955413Y-112493942D01*
X173956691Y-112495239D01*
X175558541Y-114097089D01*
X175597793Y-114129330D01*
X175636718Y-114161992D01*
X175639255Y-114163387D01*
X175641488Y-114165221D01*
X175686267Y-114189232D01*
X175730782Y-114213704D01*
X175733536Y-114214578D01*
X175736088Y-114215946D01*
X175784717Y-114230813D01*
X175833099Y-114246161D01*
X175835971Y-114246483D01*
X175838738Y-114247329D01*
X175889325Y-114252468D01*
X175939771Y-114258126D01*
X175945419Y-114258166D01*
X175945530Y-114258177D01*
X175945633Y-114258167D01*
X175947450Y-114258180D01*
X176145999Y-114258180D01*
X176145999Y-114957860D01*
X176149809Y-115005634D01*
X176174902Y-115086663D01*
X176221576Y-115157494D01*
X176286135Y-115212517D01*
X176363468Y-115247376D01*
X176447450Y-115259311D01*
X178248310Y-115259311D01*
X178296084Y-115255501D01*
X178377113Y-115230408D01*
X178447944Y-115183734D01*
X178502967Y-115119175D01*
X178537826Y-115041842D01*
X178549761Y-114957860D01*
X178549761Y-114292321D01*
X179234705Y-114292321D01*
X179254162Y-114506119D01*
X179314776Y-114712067D01*
X179414237Y-114902320D01*
X179548758Y-115069630D01*
X179713214Y-115207625D01*
X179901342Y-115311049D01*
X180105975Y-115375962D01*
X180319320Y-115399893D01*
X180334678Y-115400000D01*
X180345322Y-115400000D01*
X180558980Y-115379051D01*
X180764499Y-115317001D01*
X180954053Y-115216213D01*
X181120420Y-115080528D01*
X181257263Y-114915112D01*
X181359371Y-114726267D01*
X181422855Y-114521186D01*
X181445295Y-114307679D01*
X181425838Y-114093881D01*
X181365224Y-113887933D01*
X181265763Y-113697680D01*
X181131242Y-113530370D01*
X180966786Y-113392375D01*
X180778658Y-113288951D01*
X180574025Y-113224038D01*
X180360680Y-113200107D01*
X180345322Y-113200000D01*
X180334678Y-113200000D01*
X180121020Y-113220949D01*
X179915501Y-113282999D01*
X179725947Y-113383787D01*
X179559580Y-113519472D01*
X179422737Y-113684888D01*
X179320629Y-113873733D01*
X179257145Y-114078814D01*
X179234705Y-114292321D01*
X178549761Y-114292321D01*
X178549761Y-112458500D01*
X178545951Y-112410726D01*
X178520858Y-112329697D01*
X178474184Y-112258866D01*
X178409625Y-112203843D01*
X178399202Y-112199145D01*
X178399202Y-112183622D01*
X178551200Y-112335620D01*
X178930083Y-112335620D01*
X179047547Y-112312255D01*
X179158196Y-112266423D01*
X179257777Y-112199885D01*
X179308140Y-112149522D01*
X179314776Y-112172067D01*
X179414237Y-112362320D01*
X179548758Y-112529630D01*
X179713214Y-112667625D01*
X179901342Y-112771049D01*
X180105975Y-112835962D01*
X180319320Y-112859893D01*
X180334678Y-112860000D01*
X180345322Y-112860000D01*
X180558980Y-112839051D01*
X180764499Y-112777001D01*
X180954053Y-112676213D01*
X181120420Y-112540528D01*
X181257263Y-112375112D01*
X181359371Y-112186267D01*
X181422855Y-111981186D01*
X181445295Y-111767679D01*
X181425838Y-111553881D01*
X181365224Y-111347933D01*
X181265763Y-111157680D01*
X181131242Y-110990370D01*
X180966786Y-110852375D01*
X180778658Y-110748951D01*
X180574025Y-110684038D01*
X180360680Y-110660107D01*
X180345322Y-110660000D01*
X180334678Y-110660000D01*
X180121020Y-110680949D01*
X179915501Y-110742999D01*
X179725947Y-110843787D01*
X179559580Y-110979472D01*
X179478200Y-111077844D01*
X179478200Y-111073618D01*
X179326202Y-111073618D01*
X179478200Y-110921620D01*
X179478200Y-110667737D01*
X179454835Y-110550273D01*
X179409003Y-110439624D01*
X179342464Y-110340042D01*
X179257777Y-110255355D01*
X179158196Y-110188817D01*
X179047547Y-110142985D01*
X178930083Y-110119620D01*
X178551200Y-110119620D01*
X178399200Y-110271620D01*
X178399200Y-111073620D01*
X178419200Y-111073620D01*
X178419200Y-111381620D01*
X178399200Y-111381620D01*
X178399200Y-111401620D01*
X178091200Y-111401620D01*
X178091200Y-111381620D01*
X176299200Y-111381620D01*
X176299200Y-112183620D01*
X176308330Y-112192750D01*
X176247816Y-112232626D01*
X176192793Y-112297185D01*
X176157934Y-112374518D01*
X176145999Y-112458500D01*
X176145999Y-113128911D01*
X175319790Y-112302702D01*
X175342853Y-112312255D01*
X175460317Y-112335620D01*
X175839200Y-112335620D01*
X175991200Y-112183620D01*
X175991200Y-111381620D01*
X175064200Y-111381620D01*
X174912200Y-111533620D01*
X174912200Y-111787503D01*
X174935565Y-111904967D01*
X174945118Y-111928030D01*
X174895600Y-111878512D01*
X174895600Y-111181282D01*
X174907303Y-111164692D01*
X174958584Y-111049513D01*
X174973674Y-110983094D01*
X175064200Y-111073620D01*
X175991200Y-111073620D01*
X175991200Y-110271620D01*
X176299200Y-110271620D01*
X176299200Y-111073620D01*
X178091200Y-111073620D01*
X178091200Y-110271620D01*
X177939200Y-110119620D01*
X177560317Y-110119620D01*
X177442853Y-110142985D01*
X177332204Y-110188817D01*
X177232623Y-110255355D01*
X177195200Y-110292778D01*
X177157777Y-110255355D01*
X177058196Y-110188817D01*
X176947547Y-110142985D01*
X176830083Y-110119620D01*
X176451200Y-110119620D01*
X176299200Y-110271620D01*
X175991200Y-110271620D01*
X175839200Y-110119620D01*
X175460317Y-110119620D01*
X175342853Y-110142985D01*
X175232204Y-110188817D01*
X175132623Y-110255355D01*
X175047936Y-110340042D01*
X174981397Y-110439624D01*
X174935565Y-110550273D01*
X174930262Y-110576933D01*
X174915994Y-110542316D01*
X174846223Y-110437302D01*
X174757383Y-110347840D01*
X174652858Y-110277337D01*
X174536631Y-110228480D01*
X174413127Y-110203128D01*
X174287050Y-110202248D01*
X174163204Y-110225873D01*
X174046306Y-110273103D01*
X173940807Y-110342139D01*
X173850727Y-110430352D01*
X173779496Y-110534382D01*
X173729828Y-110650266D01*
X173703615Y-110773590D01*
X173701855Y-110899657D01*
X173724614Y-111023665D01*
X173771027Y-111140890D01*
X173795600Y-111179020D01*
X173795600Y-111519095D01*
X173745224Y-111347933D01*
X173645763Y-111157680D01*
X173511242Y-110990370D01*
X173346786Y-110852375D01*
X173158658Y-110748951D01*
X172954025Y-110684038D01*
X172740680Y-110660107D01*
X172725322Y-110660000D01*
X172714678Y-110660000D01*
X172501020Y-110680949D01*
X172295501Y-110742999D01*
X172105947Y-110843787D01*
X171939580Y-110979472D01*
X171802737Y-111144888D01*
X171700629Y-111333733D01*
X171637145Y-111538814D01*
X171614705Y-111752321D01*
X168960902Y-111752321D01*
X168941757Y-111541963D01*
X168877639Y-111324108D01*
X168772427Y-111122855D01*
X168630128Y-110945872D01*
X168456164Y-110799898D01*
X168257159Y-110690494D01*
X168040694Y-110621827D01*
X167815014Y-110596513D01*
X167798768Y-110596400D01*
X167481232Y-110596400D01*
X167255221Y-110618561D01*
X167037819Y-110684198D01*
X166837306Y-110790813D01*
X166661320Y-110934343D01*
X166516564Y-111109323D01*
X166408552Y-111309087D01*
X166341398Y-111526026D01*
X166317660Y-111751877D01*
X166130320Y-111751877D01*
X166130320Y-109211877D01*
X166317660Y-109211877D01*
X166338243Y-109438037D01*
X166402361Y-109655892D01*
X166507573Y-109857145D01*
X166649872Y-110034128D01*
X166823836Y-110180102D01*
X167022841Y-110289506D01*
X167239306Y-110358173D01*
X167464986Y-110383487D01*
X167481232Y-110383600D01*
X167798768Y-110383600D01*
X168024779Y-110361439D01*
X168242181Y-110295802D01*
X168442694Y-110189187D01*
X168618680Y-110045657D01*
X168763436Y-109870677D01*
X168871448Y-109670913D01*
X168938602Y-109453974D01*
X168962340Y-109228123D01*
X168941757Y-109001963D01*
X168877639Y-108784108D01*
X168772427Y-108582855D01*
X168630128Y-108405872D01*
X168456164Y-108259898D01*
X168257159Y-108150494D01*
X168040694Y-108081827D01*
X167815014Y-108056513D01*
X167798768Y-108056400D01*
X167481232Y-108056400D01*
X167255221Y-108078561D01*
X167037819Y-108144198D01*
X166837306Y-108250813D01*
X166661320Y-108394343D01*
X166516564Y-108569323D01*
X166408552Y-108769087D01*
X166341398Y-108986026D01*
X166317660Y-109211877D01*
X166130320Y-109211877D01*
X166130320Y-104282160D01*
X171347569Y-104282160D01*
X171347569Y-105182160D01*
X171351379Y-105229934D01*
X171376472Y-105310963D01*
X171423146Y-105381794D01*
X171487705Y-105436817D01*
X171565038Y-105471676D01*
X171649020Y-105483611D01*
X172093348Y-105483611D01*
X172021927Y-105553552D01*
X171950696Y-105657582D01*
X171901028Y-105773466D01*
X171874815Y-105896790D01*
X171873055Y-106022857D01*
X171895814Y-106146865D01*
X171942227Y-106264090D01*
X172010525Y-106370068D01*
X172098107Y-106460762D01*
X172201637Y-106532717D01*
X172317172Y-106583193D01*
X172440310Y-106610267D01*
X172566361Y-106612907D01*
X172690525Y-106591014D01*
X172808072Y-106545420D01*
X172914524Y-106477864D01*
X173005827Y-106390917D01*
X173078503Y-106287892D01*
X173129784Y-106172713D01*
X173157717Y-106049767D01*
X173159728Y-105905760D01*
X173135239Y-105782082D01*
X173087194Y-105665516D01*
X173017423Y-105560502D01*
X172941067Y-105483611D01*
X173349020Y-105483611D01*
X173396794Y-105479801D01*
X173477823Y-105454708D01*
X173548654Y-105408034D01*
X173603677Y-105343475D01*
X173638536Y-105266142D01*
X173650471Y-105182160D01*
X173650471Y-104282160D01*
X173646661Y-104234386D01*
X173621568Y-104153357D01*
X173574894Y-104082526D01*
X173510335Y-104027503D01*
X173433002Y-103992644D01*
X173349020Y-103980709D01*
X171649020Y-103980709D01*
X171601246Y-103984519D01*
X171520217Y-104009612D01*
X171449386Y-104056286D01*
X171394363Y-104120845D01*
X171359504Y-104198178D01*
X171347569Y-104282160D01*
X166130320Y-104282160D01*
X166130320Y-102641450D01*
X166218583Y-102641450D01*
X166320234Y-102911433D01*
X166472603Y-103156397D01*
X166669835Y-103366929D01*
X166904350Y-103534937D01*
X167167135Y-103653965D01*
X167258951Y-103681811D01*
X167486000Y-103570983D01*
X167486000Y-102414400D01*
X166328474Y-102414400D01*
X166218583Y-102641450D01*
X166130320Y-102641450D01*
X166130320Y-101879350D01*
X166218583Y-101879350D01*
X166328474Y-102106400D01*
X167486000Y-102106400D01*
X167486000Y-102086400D01*
X167794000Y-102086400D01*
X167794000Y-102106400D01*
X167814000Y-102106400D01*
X167814000Y-102414400D01*
X167794000Y-102414400D01*
X167794000Y-103570983D01*
X168021049Y-103681811D01*
X168112865Y-103653965D01*
X168375650Y-103534937D01*
X168610165Y-103366929D01*
X168807397Y-103156397D01*
X168959766Y-102911433D01*
X169061417Y-102641450D01*
X168951527Y-102414402D01*
X169030948Y-102414402D01*
X169038561Y-102492041D01*
X169104198Y-102709443D01*
X169210813Y-102909956D01*
X169354343Y-103085942D01*
X169529323Y-103230698D01*
X169729087Y-103338710D01*
X169946026Y-103405864D01*
X170171877Y-103429602D01*
X170398037Y-103409019D01*
X170615892Y-103344901D01*
X170817145Y-103239689D01*
X170994128Y-103097390D01*
X171140102Y-102923426D01*
X171249506Y-102724421D01*
X171318173Y-102507956D01*
X171343487Y-102282276D01*
X171343600Y-102266030D01*
X171343600Y-102254770D01*
X171321439Y-102028759D01*
X171255802Y-101811357D01*
X171149187Y-101610844D01*
X171005657Y-101434858D01*
X170830677Y-101290102D01*
X170630913Y-101182090D01*
X170413974Y-101114936D01*
X170188123Y-101091198D01*
X169961963Y-101111781D01*
X169744108Y-101175899D01*
X169542855Y-101281111D01*
X169365872Y-101423410D01*
X169219898Y-101597374D01*
X169110494Y-101796379D01*
X169041827Y-102012844D01*
X169031333Y-102106398D01*
X168951527Y-102106398D01*
X169061417Y-101879350D01*
X168959766Y-101609367D01*
X168807397Y-101364403D01*
X168610165Y-101153871D01*
X168375650Y-100985863D01*
X168112865Y-100866835D01*
X168021049Y-100838989D01*
X167794002Y-100949816D01*
X167794002Y-100874847D01*
X167858037Y-100869019D01*
X168075892Y-100804901D01*
X168277145Y-100699689D01*
X168454128Y-100557390D01*
X168600102Y-100383426D01*
X168709506Y-100184421D01*
X168778173Y-99967956D01*
X168803487Y-99742276D01*
X168803600Y-99726030D01*
X168803600Y-99714770D01*
X169016400Y-99714770D01*
X169016400Y-99726030D01*
X169038561Y-99952041D01*
X169104198Y-100169443D01*
X169210813Y-100369956D01*
X169354343Y-100545942D01*
X169529323Y-100690698D01*
X169729087Y-100798710D01*
X169946026Y-100865864D01*
X170171877Y-100889602D01*
X170398037Y-100869019D01*
X170615892Y-100804901D01*
X170817145Y-100699689D01*
X170994128Y-100557390D01*
X171140102Y-100383426D01*
X171249506Y-100184421D01*
X171318173Y-99967956D01*
X171343487Y-99742276D01*
X171343600Y-99726030D01*
X171343600Y-99714770D01*
X171321439Y-99488759D01*
X171255802Y-99271357D01*
X171149187Y-99070844D01*
X171005657Y-98894858D01*
X170959653Y-98856800D01*
X171554949Y-98856800D01*
X171554949Y-100584000D01*
X171558759Y-100631774D01*
X171583852Y-100712803D01*
X171630526Y-100783634D01*
X171695085Y-100838657D01*
X171772418Y-100873516D01*
X171856400Y-100885451D01*
X173583600Y-100885451D01*
X173631374Y-100881641D01*
X173712403Y-100856548D01*
X173783234Y-100809874D01*
X173838257Y-100745315D01*
X173873116Y-100667982D01*
X173885051Y-100584000D01*
X173885051Y-98856800D01*
X173881241Y-98809026D01*
X173856148Y-98727997D01*
X173809474Y-98657166D01*
X173744915Y-98602143D01*
X173667582Y-98567284D01*
X173583600Y-98555349D01*
X171856400Y-98555349D01*
X171808626Y-98559159D01*
X171727597Y-98584252D01*
X171656766Y-98630926D01*
X171601743Y-98695485D01*
X171566884Y-98772818D01*
X171554949Y-98856800D01*
X170959653Y-98856800D01*
X170830677Y-98750102D01*
X170630913Y-98642090D01*
X170413974Y-98574936D01*
X170188123Y-98551198D01*
X169961963Y-98571781D01*
X169744108Y-98635899D01*
X169542855Y-98741111D01*
X169365872Y-98883410D01*
X169219898Y-99057374D01*
X169110494Y-99256379D01*
X169041827Y-99472844D01*
X169016513Y-99698524D01*
X169016400Y-99714770D01*
X168803600Y-99714770D01*
X168781439Y-99488759D01*
X168715802Y-99271357D01*
X168609187Y-99070844D01*
X168465657Y-98894858D01*
X168290677Y-98750102D01*
X168090913Y-98642090D01*
X167873974Y-98574936D01*
X167648123Y-98551198D01*
X167421963Y-98571781D01*
X167204108Y-98635899D01*
X167002855Y-98741111D01*
X166825872Y-98883410D01*
X166679898Y-99057374D01*
X166570494Y-99256379D01*
X166501827Y-99472844D01*
X166476513Y-99698524D01*
X166476400Y-99714770D01*
X166476400Y-99726030D01*
X166498561Y-99952041D01*
X166564198Y-100169443D01*
X166670813Y-100369956D01*
X166814343Y-100545942D01*
X166989323Y-100690698D01*
X167189087Y-100798710D01*
X167406026Y-100865864D01*
X167485998Y-100874269D01*
X167485998Y-100949816D01*
X167258951Y-100838989D01*
X167167135Y-100866835D01*
X166904350Y-100985863D01*
X166669835Y-101153871D01*
X166472603Y-101364403D01*
X166320234Y-101609367D01*
X166218583Y-101879350D01*
X166130320Y-101879350D01*
X166130320Y-98887839D01*
X166144437Y-98743865D01*
X166180923Y-98623016D01*
X166240188Y-98511554D01*
X166319973Y-98413728D01*
X166417244Y-98333259D01*
X166528284Y-98273220D01*
X166648879Y-98235890D01*
X166791677Y-98220881D01*
X175700898Y-98220881D01*
X175695366Y-98224526D01*
M02*
