G04 #@! TF.FileFunction,Legend,Bot*
%FSLAX46Y46*%
G04 Gerber Fmt 4.6, Leading zero omitted, Abs format (unit mm)*
G04 Created by KiCad (PCBNEW 4.0.1-stable) date 20.1.2016 23.10.08*
%MOMM*%
G01*
G04 APERTURE LIST*
%ADD10C,0.100000*%
%ADD11C,0.200000*%
%ADD12C,0.150000*%
%ADD13R,1.504000X1.254000*%
%ADD14R,2.054860X2.753360*%
%ADD15O,1.854000X1.854000*%
%ADD16O,2.286000X1.981200*%
%ADD17O,2.252980X2.252980*%
%ADD18R,2.252980X2.252980*%
%ADD19R,1.981200X1.981200*%
%ADD20O,1.981200X1.981200*%
%ADD21R,1.154000X1.954000*%
%ADD22R,3.911600X2.286000*%
%ADD23R,1.270000X2.286000*%
%ADD24R,1.954000X1.154000*%
G04 APERTURE END LIST*
D10*
D11*
X178269686Y-115790819D02*
X178222067Y-115743200D01*
X178126829Y-115695581D01*
X177888733Y-115695581D01*
X177793495Y-115743200D01*
X177745876Y-115790819D01*
X177698257Y-115886057D01*
X177698257Y-115981295D01*
X177745876Y-116124152D01*
X178317305Y-116695581D01*
X177698257Y-116695581D01*
X177079210Y-115695581D02*
X176983971Y-115695581D01*
X176888733Y-115743200D01*
X176841114Y-115790819D01*
X176793495Y-115886057D01*
X176745876Y-116076533D01*
X176745876Y-116314629D01*
X176793495Y-116505105D01*
X176841114Y-116600343D01*
X176888733Y-116647962D01*
X176983971Y-116695581D01*
X177079210Y-116695581D01*
X177174448Y-116647962D01*
X177222067Y-116600343D01*
X177269686Y-116505105D01*
X177317305Y-116314629D01*
X177317305Y-116076533D01*
X177269686Y-115886057D01*
X177222067Y-115790819D01*
X177174448Y-115743200D01*
X177079210Y-115695581D01*
X175793495Y-116695581D02*
X176364924Y-116695581D01*
X176079210Y-116695581D02*
X176079210Y-115695581D01*
X176174448Y-115838438D01*
X176269686Y-115933676D01*
X176364924Y-115981295D01*
X174936352Y-115695581D02*
X175126829Y-115695581D01*
X175222067Y-115743200D01*
X175269686Y-115790819D01*
X175364924Y-115933676D01*
X175412543Y-116124152D01*
X175412543Y-116505105D01*
X175364924Y-116600343D01*
X175317305Y-116647962D01*
X175222067Y-116695581D01*
X175031590Y-116695581D01*
X174936352Y-116647962D01*
X174888733Y-116600343D01*
X174841114Y-116505105D01*
X174841114Y-116267010D01*
X174888733Y-116171771D01*
X174936352Y-116124152D01*
X175031590Y-116076533D01*
X175222067Y-116076533D01*
X175317305Y-116124152D01*
X175364924Y-116171771D01*
X175412543Y-116267010D01*
X178293496Y-118295581D02*
X178293496Y-117628914D01*
X178293496Y-117819390D02*
X178245877Y-117724152D01*
X178198258Y-117676533D01*
X178103020Y-117628914D01*
X178007781Y-117628914D01*
X177293495Y-118247962D02*
X177388733Y-118295581D01*
X177579210Y-118295581D01*
X177674448Y-118247962D01*
X177722067Y-118152724D01*
X177722067Y-117771771D01*
X177674448Y-117676533D01*
X177579210Y-117628914D01*
X177388733Y-117628914D01*
X177293495Y-117676533D01*
X177245876Y-117771771D01*
X177245876Y-117867010D01*
X177722067Y-117962248D01*
X176912543Y-117628914D02*
X176674448Y-118295581D01*
X176436352Y-117628914D01*
X174769685Y-118295581D02*
X175341114Y-118295581D01*
X175055400Y-118295581D02*
X175055400Y-117295581D01*
X175150638Y-117438438D01*
X175245876Y-117533676D01*
X175341114Y-117581295D01*
D12*
X168213429Y-113866786D02*
X168213429Y-114209643D01*
X168813429Y-114038214D02*
X168213429Y-114038214D01*
X168813429Y-114409643D02*
X168413429Y-114409643D01*
X168213429Y-114409643D02*
X168242000Y-114381072D01*
X168270571Y-114409643D01*
X168242000Y-114438215D01*
X168213429Y-114409643D01*
X168270571Y-114409643D01*
X168413429Y-114695357D02*
X168813429Y-114695357D01*
X168470571Y-114695357D02*
X168442000Y-114723929D01*
X168413429Y-114781071D01*
X168413429Y-114866786D01*
X168442000Y-114923929D01*
X168499143Y-114952500D01*
X168813429Y-114952500D01*
X168413429Y-115181071D02*
X168813429Y-115323928D01*
X168413429Y-115466786D02*
X168813429Y-115323928D01*
X168956286Y-115266786D01*
X168984857Y-115238214D01*
X169013429Y-115181071D01*
X168470571Y-115781071D02*
X168442000Y-115723929D01*
X168413429Y-115695357D01*
X168356286Y-115666786D01*
X168327714Y-115666786D01*
X168270571Y-115695357D01*
X168242000Y-115723929D01*
X168213429Y-115781071D01*
X168213429Y-115895357D01*
X168242000Y-115952500D01*
X168270571Y-115981071D01*
X168327714Y-116009643D01*
X168356286Y-116009643D01*
X168413429Y-115981071D01*
X168442000Y-115952500D01*
X168470571Y-115895357D01*
X168470571Y-115781071D01*
X168499143Y-115723929D01*
X168527714Y-115695357D01*
X168584857Y-115666786D01*
X168699143Y-115666786D01*
X168756286Y-115695357D01*
X168784857Y-115723929D01*
X168813429Y-115781071D01*
X168813429Y-115895357D01*
X168784857Y-115952500D01*
X168756286Y-115981071D01*
X168699143Y-116009643D01*
X168584857Y-116009643D01*
X168527714Y-115981071D01*
X168499143Y-115952500D01*
X168470571Y-115895357D01*
X168213429Y-116552500D02*
X168213429Y-116266786D01*
X168499143Y-116238215D01*
X168470571Y-116266786D01*
X168442000Y-116323929D01*
X168442000Y-116466786D01*
X168470571Y-116523929D01*
X168499143Y-116552500D01*
X168556286Y-116581072D01*
X168699143Y-116581072D01*
X168756286Y-116552500D01*
X168784857Y-116523929D01*
X168813429Y-116466786D01*
X168813429Y-116323929D01*
X168784857Y-116266786D01*
X168756286Y-116238215D01*
X169632000Y-111581072D02*
X169632000Y-111866786D01*
X169803429Y-111523929D02*
X169203429Y-111723929D01*
X169803429Y-111923929D01*
X169403429Y-112495358D02*
X169403429Y-112723929D01*
X169203429Y-112581072D02*
X169717714Y-112581072D01*
X169774857Y-112609644D01*
X169803429Y-112666786D01*
X169803429Y-112723929D01*
X169803429Y-112923929D02*
X169403429Y-112923929D01*
X169203429Y-112923929D02*
X169232000Y-112895358D01*
X169260571Y-112923929D01*
X169232000Y-112952501D01*
X169203429Y-112923929D01*
X169260571Y-112923929D01*
X169403429Y-113209643D02*
X169803429Y-113209643D01*
X169460571Y-113209643D02*
X169432000Y-113238215D01*
X169403429Y-113295357D01*
X169403429Y-113381072D01*
X169432000Y-113438215D01*
X169489143Y-113466786D01*
X169803429Y-113466786D01*
X169403429Y-113695357D02*
X169803429Y-113838214D01*
X169403429Y-113981072D02*
X169803429Y-113838214D01*
X169946286Y-113781072D01*
X169974857Y-113752500D01*
X170003429Y-113695357D01*
X169803429Y-114923929D02*
X169203429Y-114923929D01*
X169774857Y-114923929D02*
X169803429Y-114866786D01*
X169803429Y-114752500D01*
X169774857Y-114695358D01*
X169746286Y-114666786D01*
X169689143Y-114638215D01*
X169517714Y-114638215D01*
X169460571Y-114666786D01*
X169432000Y-114695358D01*
X169403429Y-114752500D01*
X169403429Y-114866786D01*
X169432000Y-114923929D01*
X169774857Y-115438215D02*
X169803429Y-115381072D01*
X169803429Y-115266786D01*
X169774857Y-115209643D01*
X169717714Y-115181072D01*
X169489143Y-115181072D01*
X169432000Y-115209643D01*
X169403429Y-115266786D01*
X169403429Y-115381072D01*
X169432000Y-115438215D01*
X169489143Y-115466786D01*
X169546286Y-115466786D01*
X169603429Y-115181072D01*
X169403429Y-115666786D02*
X169803429Y-115809643D01*
X169403429Y-115952501D01*
X169803429Y-116638215D02*
X169203429Y-116638215D01*
X169432000Y-116638215D02*
X169403429Y-116695358D01*
X169403429Y-116809644D01*
X169432000Y-116866787D01*
X169460571Y-116895358D01*
X169517714Y-116923929D01*
X169689143Y-116923929D01*
X169746286Y-116895358D01*
X169774857Y-116866787D01*
X169803429Y-116809644D01*
X169803429Y-116695358D01*
X169774857Y-116638215D01*
X169803429Y-117266786D02*
X169774857Y-117209644D01*
X169746286Y-117181072D01*
X169689143Y-117152501D01*
X169517714Y-117152501D01*
X169460571Y-117181072D01*
X169432000Y-117209644D01*
X169403429Y-117266786D01*
X169403429Y-117352501D01*
X169432000Y-117409644D01*
X169460571Y-117438215D01*
X169517714Y-117466786D01*
X169689143Y-117466786D01*
X169746286Y-117438215D01*
X169774857Y-117409644D01*
X169803429Y-117352501D01*
X169803429Y-117266786D01*
X169803429Y-117981072D02*
X169489143Y-117981072D01*
X169432000Y-117952501D01*
X169403429Y-117895358D01*
X169403429Y-117781072D01*
X169432000Y-117723929D01*
X169774857Y-117981072D02*
X169803429Y-117923929D01*
X169803429Y-117781072D01*
X169774857Y-117723929D01*
X169717714Y-117695358D01*
X169660571Y-117695358D01*
X169603429Y-117723929D01*
X169574857Y-117781072D01*
X169574857Y-117923929D01*
X169546286Y-117981072D01*
X169803429Y-118266786D02*
X169403429Y-118266786D01*
X169517714Y-118266786D02*
X169460571Y-118295358D01*
X169432000Y-118323929D01*
X169403429Y-118381072D01*
X169403429Y-118438215D01*
X169803429Y-118895358D02*
X169203429Y-118895358D01*
X169774857Y-118895358D02*
X169803429Y-118838215D01*
X169803429Y-118723929D01*
X169774857Y-118666787D01*
X169746286Y-118638215D01*
X169689143Y-118609644D01*
X169517714Y-118609644D01*
X169460571Y-118638215D01*
X169432000Y-118666787D01*
X169403429Y-118723929D01*
X169403429Y-118838215D01*
X169432000Y-118895358D01*
D11*
X183002381Y-114189048D02*
X182002381Y-114189048D01*
X183002381Y-114760477D01*
X182002381Y-114760477D01*
X183002381Y-115236667D02*
X182335714Y-115236667D01*
X182002381Y-115236667D02*
X182050000Y-115189048D01*
X182097619Y-115236667D01*
X182050000Y-115284286D01*
X182002381Y-115236667D01*
X182097619Y-115236667D01*
X183002381Y-115712857D02*
X182002381Y-115712857D01*
X182621429Y-115808095D02*
X183002381Y-116093810D01*
X182335714Y-116093810D02*
X182716667Y-115712857D01*
X183002381Y-116665238D02*
X182954762Y-116570000D01*
X182907143Y-116522381D01*
X182811905Y-116474762D01*
X182526190Y-116474762D01*
X182430952Y-116522381D01*
X182383333Y-116570000D01*
X182335714Y-116665238D01*
X182335714Y-116808096D01*
X182383333Y-116903334D01*
X182430952Y-116950953D01*
X182526190Y-116998572D01*
X182811905Y-116998572D01*
X182907143Y-116950953D01*
X182954762Y-116903334D01*
X183002381Y-116808096D01*
X183002381Y-116665238D01*
X183602381Y-112712858D02*
X183792857Y-112617620D01*
X183935714Y-113141429D02*
X184602381Y-113141429D01*
X184030952Y-113141429D02*
X183983333Y-113189048D01*
X183935714Y-113284286D01*
X183935714Y-113427144D01*
X183983333Y-113522382D01*
X184078571Y-113570001D01*
X184602381Y-113570001D01*
X184602381Y-114046191D02*
X183935714Y-114046191D01*
X183602381Y-114046191D02*
X183650000Y-113998572D01*
X183697619Y-114046191D01*
X183650000Y-114093810D01*
X183602381Y-114046191D01*
X183697619Y-114046191D01*
X184602381Y-114522381D02*
X183602381Y-114522381D01*
X184221429Y-114617619D02*
X184602381Y-114903334D01*
X183935714Y-114903334D02*
X184316667Y-114522381D01*
X184602381Y-115474762D02*
X184554762Y-115379524D01*
X184507143Y-115331905D01*
X184411905Y-115284286D01*
X184126190Y-115284286D01*
X184030952Y-115331905D01*
X183983333Y-115379524D01*
X183935714Y-115474762D01*
X183935714Y-115617620D01*
X183983333Y-115712858D01*
X184030952Y-115760477D01*
X184126190Y-115808096D01*
X184411905Y-115808096D01*
X184507143Y-115760477D01*
X184554762Y-115712858D01*
X184602381Y-115617620D01*
X184602381Y-115474762D01*
X184602381Y-116236667D02*
X183935714Y-116236667D01*
X184030952Y-116236667D02*
X183983333Y-116284286D01*
X183935714Y-116379524D01*
X183935714Y-116522382D01*
X183983333Y-116617620D01*
X184078571Y-116665239D01*
X184602381Y-116665239D01*
X184078571Y-116665239D02*
X183983333Y-116712858D01*
X183935714Y-116808096D01*
X183935714Y-116950953D01*
X183983333Y-117046191D01*
X184078571Y-117093810D01*
X184602381Y-117093810D01*
X184602381Y-117712857D02*
X184554762Y-117617619D01*
X184507143Y-117570000D01*
X184411905Y-117522381D01*
X184126190Y-117522381D01*
X184030952Y-117570000D01*
X183983333Y-117617619D01*
X183935714Y-117712857D01*
X183935714Y-117855715D01*
X183983333Y-117950953D01*
X184030952Y-117998572D01*
X184126190Y-118046191D01*
X184411905Y-118046191D01*
X184507143Y-117998572D01*
X184554762Y-117950953D01*
X184602381Y-117855715D01*
X184602381Y-117712857D01*
X183602381Y-118522381D02*
X183792857Y-118427143D01*
X186202381Y-112260476D02*
X185202381Y-112260476D01*
X185916667Y-112593810D01*
X185202381Y-112927143D01*
X186202381Y-112927143D01*
X186202381Y-113546190D02*
X186154762Y-113450952D01*
X186107143Y-113403333D01*
X186011905Y-113355714D01*
X185726190Y-113355714D01*
X185630952Y-113403333D01*
X185583333Y-113450952D01*
X185535714Y-113546190D01*
X185535714Y-113689048D01*
X185583333Y-113784286D01*
X185630952Y-113831905D01*
X185726190Y-113879524D01*
X186011905Y-113879524D01*
X186107143Y-113831905D01*
X186154762Y-113784286D01*
X186202381Y-113689048D01*
X186202381Y-113546190D01*
X185535714Y-114308095D02*
X186202381Y-114308095D01*
X185630952Y-114308095D02*
X185583333Y-114355714D01*
X185535714Y-114450952D01*
X185535714Y-114593810D01*
X185583333Y-114689048D01*
X185678571Y-114736667D01*
X186202381Y-114736667D01*
X185535714Y-115070000D02*
X185535714Y-115450952D01*
X185202381Y-115212857D02*
X186059524Y-115212857D01*
X186154762Y-115260476D01*
X186202381Y-115355714D01*
X186202381Y-115450952D01*
X186202381Y-115927143D02*
X186154762Y-115831905D01*
X186107143Y-115784286D01*
X186011905Y-115736667D01*
X185726190Y-115736667D01*
X185630952Y-115784286D01*
X185583333Y-115831905D01*
X185535714Y-115927143D01*
X185535714Y-116070001D01*
X185583333Y-116165239D01*
X185630952Y-116212858D01*
X185726190Y-116260477D01*
X186011905Y-116260477D01*
X186107143Y-116212858D01*
X186154762Y-116165239D01*
X186202381Y-116070001D01*
X186202381Y-115927143D01*
X185535714Y-116689048D02*
X186202381Y-116689048D01*
X185630952Y-116689048D02*
X185583333Y-116736667D01*
X185535714Y-116831905D01*
X185535714Y-116974763D01*
X185583333Y-117070001D01*
X185678571Y-117117620D01*
X186202381Y-117117620D01*
X186154762Y-117974763D02*
X186202381Y-117879525D01*
X186202381Y-117689048D01*
X186154762Y-117593810D01*
X186059524Y-117546191D01*
X185678571Y-117546191D01*
X185583333Y-117593810D01*
X185535714Y-117689048D01*
X185535714Y-117879525D01*
X185583333Y-117974763D01*
X185678571Y-118022382D01*
X185773810Y-118022382D01*
X185869048Y-117546191D01*
X185535714Y-118450953D02*
X186202381Y-118450953D01*
X185630952Y-118450953D02*
X185583333Y-118498572D01*
X185535714Y-118593810D01*
X185535714Y-118736668D01*
X185583333Y-118831906D01*
X185678571Y-118879525D01*
X186202381Y-118879525D01*
D12*
X184050000Y-110720000D02*
X184050000Y-109720000D01*
X185750000Y-109720000D02*
X185750000Y-110720000D01*
X181950000Y-110720000D02*
X181950000Y-109720000D01*
X183650000Y-109720000D02*
X183650000Y-110720000D01*
X178800760Y-109490960D02*
X178450240Y-109490960D01*
X175300640Y-109490960D02*
X175651160Y-109490960D01*
X178800760Y-113540540D02*
X178450240Y-113540540D01*
X178800760Y-109039660D02*
X178450240Y-109039660D01*
X175300640Y-109039660D02*
X175651160Y-109039660D01*
X175300640Y-113540540D02*
X175651160Y-113540540D01*
X178800760Y-109039660D02*
X178800760Y-113540540D01*
X175300640Y-109039660D02*
X175300640Y-113540540D01*
X174228000Y-103928600D02*
X172228000Y-103928600D01*
X172228000Y-106078600D02*
X174228000Y-106078600D01*
X170481500Y-109034000D02*
X168481500Y-109034000D01*
X168481500Y-111184000D02*
X170481500Y-111184000D01*
X184531000Y-103124000D02*
X184531000Y-106172000D01*
X184531000Y-106172000D02*
X177419000Y-106172000D01*
X177419000Y-106172000D02*
X177419000Y-103124000D01*
X184531000Y-100076000D02*
X184531000Y-99314000D01*
X184531000Y-99314000D02*
X183007000Y-97028000D01*
X183007000Y-97028000D02*
X178943000Y-97028000D01*
X178943000Y-97028000D02*
X177419000Y-99314000D01*
X177419000Y-99314000D02*
X177419000Y-100076000D01*
X175010500Y-98187000D02*
X175010500Y-100187000D01*
X177160500Y-100187000D02*
X177160500Y-98187000D01*
X169313860Y-107523280D02*
X170784520Y-107883960D01*
X170784520Y-107883960D02*
X169722800Y-108163360D01*
X169722800Y-108163360D02*
X170794680Y-108473240D01*
X170794680Y-108473240D02*
X169344340Y-108813600D01*
X170004740Y-106103420D02*
X169994580Y-106893360D01*
X169994580Y-106893360D02*
X170004740Y-106903520D01*
X170004740Y-106903520D02*
X169994580Y-106903520D01*
X169283380Y-106944160D02*
X170825160Y-106944160D01*
X169273220Y-106055160D02*
X170842940Y-106055160D01*
X170842940Y-106055160D02*
X170832780Y-106065320D01*
X169374820Y-105503980D02*
X169293540Y-105153460D01*
X169293540Y-105153460D02*
X169283380Y-104833420D01*
X169283380Y-104833420D02*
X169484040Y-104594660D01*
X169484040Y-104594660D02*
X169753280Y-104564180D01*
X169753280Y-104564180D02*
X169994580Y-104805480D01*
X169994580Y-104805480D02*
X170124120Y-105194100D01*
X170124120Y-105194100D02*
X170284140Y-105374440D01*
X170284140Y-105374440D02*
X170583860Y-105415080D01*
X170583860Y-105415080D02*
X170804840Y-105183940D01*
X170804840Y-105183940D02*
X170832780Y-104863900D01*
X170832780Y-104863900D02*
X170723560Y-104513380D01*
X169273220Y-103474520D02*
X169293540Y-103225600D01*
X169293540Y-103225600D02*
X169534840Y-102984300D01*
X169534840Y-102984300D02*
X170025060Y-102895400D01*
X170025060Y-102895400D02*
X170373040Y-102923340D01*
X170373040Y-102923340D02*
X170693080Y-103124000D01*
X170693080Y-103124000D02*
X170815000Y-103375460D01*
X170815000Y-103375460D02*
X170743880Y-103685340D01*
X170743880Y-103685340D02*
X170563540Y-103903780D01*
X170563540Y-103903780D02*
X170103800Y-103974900D01*
X170103800Y-103974900D02*
X169694860Y-103924100D01*
X169694860Y-103924100D02*
X169412920Y-103814880D01*
X169412920Y-103814880D02*
X169283380Y-103454200D01*
X167553640Y-104073960D02*
X168114980Y-103814880D01*
X168114980Y-103814880D02*
X168633140Y-104353360D01*
X168633140Y-104353360D02*
X168363900Y-104874060D01*
X168363900Y-104874060D02*
X168523920Y-105153460D01*
X168503600Y-106593640D02*
X168313100Y-106923840D01*
X168313100Y-106923840D02*
X168643300Y-107363260D01*
X168643300Y-107363260D02*
X168153080Y-107835700D01*
X168153080Y-107835700D02*
X167673020Y-107553760D01*
X167673020Y-107553760D02*
X167203120Y-107744260D01*
X167203120Y-107744260D02*
X167015160Y-108353860D01*
X167015160Y-108353860D02*
X166334440Y-108353860D01*
X166334440Y-108353860D02*
X166194740Y-107795060D01*
X166194740Y-107795060D02*
X165623240Y-107594400D01*
X165623240Y-107594400D02*
X165153340Y-107863640D01*
X165153340Y-107863640D02*
X164642800Y-107393740D01*
X164642800Y-107393740D02*
X164904420Y-106875580D01*
X164904420Y-106875580D02*
X164703760Y-106405680D01*
X164703760Y-106405680D02*
X164162740Y-106235500D01*
X164162740Y-106235500D02*
X164144960Y-105544620D01*
X164144960Y-105544620D02*
X164693600Y-105333800D01*
X164693600Y-105333800D02*
X164863780Y-104914700D01*
X164863780Y-104914700D02*
X164594540Y-104363520D01*
X164594540Y-104363520D02*
X165122860Y-103845360D01*
X165122860Y-103845360D02*
X165663880Y-104094280D01*
X165663880Y-104094280D02*
X166143940Y-103924100D01*
X166143940Y-103924100D02*
X166243000Y-103375460D01*
X166243000Y-103375460D02*
X166944040Y-103365300D01*
X166944040Y-103365300D02*
X167144700Y-103924100D01*
X167144700Y-103924100D02*
X167543480Y-104063800D01*
X167523160Y-106205020D02*
X167373300Y-106504740D01*
X167373300Y-106504740D02*
X167175180Y-106705400D01*
X167175180Y-106705400D02*
X166773860Y-106855260D01*
X166773860Y-106855260D02*
X166375080Y-106855260D01*
X166375080Y-106855260D02*
X166024560Y-106705400D01*
X166024560Y-106705400D02*
X165674040Y-106253280D01*
X165674040Y-106253280D02*
X165623240Y-105803700D01*
X165623240Y-105803700D02*
X165724840Y-105404920D01*
X165724840Y-105404920D02*
X166072820Y-105003600D01*
X166072820Y-105003600D02*
X166524940Y-104853740D01*
X166524940Y-104853740D02*
X167022780Y-104904540D01*
X167022780Y-104904540D02*
X167325040Y-105153460D01*
X167325040Y-105153460D02*
X167523160Y-105503980D01*
X167523160Y-105503980D02*
X168523920Y-105153460D01*
X167523160Y-106205020D02*
X168523920Y-106603800D01*
X185257143Y-107253334D02*
X185304762Y-107205715D01*
X185352381Y-107062858D01*
X185352381Y-106967620D01*
X185304762Y-106824762D01*
X185209524Y-106729524D01*
X185114286Y-106681905D01*
X184923810Y-106634286D01*
X184780952Y-106634286D01*
X184590476Y-106681905D01*
X184495238Y-106729524D01*
X184400000Y-106824762D01*
X184352381Y-106967620D01*
X184352381Y-107062858D01*
X184400000Y-107205715D01*
X184447619Y-107253334D01*
X185352381Y-108205715D02*
X185352381Y-107634286D01*
X185352381Y-107920000D02*
X184352381Y-107920000D01*
X184495238Y-107824762D01*
X184590476Y-107729524D01*
X184638095Y-107634286D01*
X183157143Y-107253334D02*
X183204762Y-107205715D01*
X183252381Y-107062858D01*
X183252381Y-106967620D01*
X183204762Y-106824762D01*
X183109524Y-106729524D01*
X183014286Y-106681905D01*
X182823810Y-106634286D01*
X182680952Y-106634286D01*
X182490476Y-106681905D01*
X182395238Y-106729524D01*
X182300000Y-106824762D01*
X182252381Y-106967620D01*
X182252381Y-107062858D01*
X182300000Y-107205715D01*
X182347619Y-107253334D01*
X182347619Y-107634286D02*
X182300000Y-107681905D01*
X182252381Y-107777143D01*
X182252381Y-108015239D01*
X182300000Y-108110477D01*
X182347619Y-108158096D01*
X182442857Y-108205715D01*
X182538095Y-108205715D01*
X182680952Y-108158096D01*
X183252381Y-107586667D01*
X183252381Y-108205715D01*
X175585381Y-107211905D02*
X174585381Y-107211905D01*
X174585381Y-107450000D01*
X174633000Y-107592858D01*
X174728238Y-107688096D01*
X174823476Y-107735715D01*
X175013952Y-107783334D01*
X175156810Y-107783334D01*
X175347286Y-107735715D01*
X175442524Y-107688096D01*
X175537762Y-107592858D01*
X175585381Y-107450000D01*
X175585381Y-107211905D01*
X175585381Y-108735715D02*
X175585381Y-108164286D01*
X175585381Y-108450000D02*
X174585381Y-108450000D01*
X174728238Y-108354762D01*
X174823476Y-108259524D01*
X174871095Y-108164286D01*
X173394666Y-103455981D02*
X173728000Y-102979790D01*
X173966095Y-103455981D02*
X173966095Y-102455981D01*
X173585142Y-102455981D01*
X173489904Y-102503600D01*
X173442285Y-102551219D01*
X173394666Y-102646457D01*
X173394666Y-102789314D01*
X173442285Y-102884552D01*
X173489904Y-102932171D01*
X173585142Y-102979790D01*
X173966095Y-102979790D01*
X172442285Y-103455981D02*
X173013714Y-103455981D01*
X172728000Y-103455981D02*
X172728000Y-102455981D01*
X172823238Y-102598838D01*
X172918476Y-102694076D01*
X173013714Y-102741695D01*
X168028881Y-112037834D02*
X167552690Y-111704500D01*
X168028881Y-111466405D02*
X167028881Y-111466405D01*
X167028881Y-111847358D01*
X167076500Y-111942596D01*
X167124119Y-111990215D01*
X167219357Y-112037834D01*
X167362214Y-112037834D01*
X167457452Y-111990215D01*
X167505071Y-111942596D01*
X167552690Y-111847358D01*
X167552690Y-111466405D01*
X167124119Y-112418786D02*
X167076500Y-112466405D01*
X167028881Y-112561643D01*
X167028881Y-112799739D01*
X167076500Y-112894977D01*
X167124119Y-112942596D01*
X167219357Y-112990215D01*
X167314595Y-112990215D01*
X167457452Y-112942596D01*
X168028881Y-112371167D01*
X168028881Y-112990215D01*
X185546905Y-96734381D02*
X185546905Y-97543905D01*
X185499286Y-97639143D01*
X185451667Y-97686762D01*
X185356429Y-97734381D01*
X185165952Y-97734381D01*
X185070714Y-97686762D01*
X185023095Y-97639143D01*
X184975476Y-97543905D01*
X184975476Y-96734381D01*
X183975476Y-97734381D02*
X184546905Y-97734381D01*
X184261191Y-97734381D02*
X184261191Y-96734381D01*
X184356429Y-96877238D01*
X184451667Y-96972476D01*
X184546905Y-97020095D01*
X176537881Y-102220334D02*
X176061690Y-101887000D01*
X176537881Y-101648905D02*
X175537881Y-101648905D01*
X175537881Y-102029858D01*
X175585500Y-102125096D01*
X175633119Y-102172715D01*
X175728357Y-102220334D01*
X175871214Y-102220334D01*
X175966452Y-102172715D01*
X176014071Y-102125096D01*
X176061690Y-102029858D01*
X176061690Y-101648905D01*
X175537881Y-102553667D02*
X175537881Y-103172715D01*
X175918833Y-102839381D01*
X175918833Y-102982239D01*
X175966452Y-103077477D01*
X176014071Y-103125096D01*
X176109310Y-103172715D01*
X176347405Y-103172715D01*
X176442643Y-103125096D01*
X176490262Y-103077477D01*
X176537881Y-102982239D01*
X176537881Y-102696524D01*
X176490262Y-102601286D01*
X176442643Y-102553667D01*
%LPC*%
D13*
X184900000Y-109220000D03*
X184900000Y-111220000D03*
X182800000Y-109220000D03*
X182800000Y-111220000D03*
D14*
X177050700Y-109291120D03*
X177050700Y-113289080D03*
D15*
X172720000Y-109220000D03*
X172720000Y-111760000D03*
X172720000Y-114300000D03*
X172720000Y-116840000D03*
X180340000Y-116840000D03*
X180340000Y-114300000D03*
X180340000Y-111760000D03*
X180340000Y-109220000D03*
D16*
X165100000Y-109220000D03*
X165100000Y-111760000D03*
X165100000Y-114300000D03*
X165100000Y-116840000D03*
X187960000Y-116840000D03*
X187960000Y-114300000D03*
X187960000Y-111760000D03*
X187960000Y-109220000D03*
D17*
X186355000Y-99060000D03*
D18*
X186355000Y-104140000D03*
D17*
X186355000Y-101600000D03*
D19*
X170180000Y-99060000D03*
D20*
X170180000Y-101600000D03*
X167640000Y-99060000D03*
X167640000Y-101600000D03*
X165100000Y-99060000D03*
X165100000Y-101600000D03*
D21*
X171778000Y-105003600D03*
X174678000Y-105003600D03*
X168031500Y-110109000D03*
X170931500Y-110109000D03*
D22*
X180975000Y-98298000D03*
D23*
X180975000Y-104902000D03*
X178689000Y-104902000D03*
X183261000Y-104902000D03*
D24*
X176085500Y-100637000D03*
X176085500Y-97737000D03*
M02*
